<svg id="Layer_1" data-name="Layer 1" xmlns="http://www.w3.org/2000/svg" xmlns:xlink="http://www.w3.org/1999/xlink" viewBox="0 0 840.13 284.9"><defs><style>.cls-1,.cls-10,.cls-100,.cls-101,.cls-102,.cls-103,.cls-104,.cls-105,.cls-106,.cls-107,.cls-108,.cls-109,.cls-11,.cls-110,.cls-111,.cls-112,.cls-113,.cls-114,.cls-115,.cls-116,.cls-117,.cls-118,.cls-119,.cls-12,.cls-120,.cls-121,.cls-122,.cls-123,.cls-124,.cls-125,.cls-126,.cls-127,.cls-128,.cls-129,.cls-130,.cls-131,.cls-132,.cls-133,.cls-134,.cls-135,.cls-136,.cls-137,.cls-138,.cls-139,.cls-140,.cls-141,.cls-142,.cls-143,.cls-144,.cls-145,.cls-146,.cls-147,.cls-148,.cls-149,.cls-150,.cls-151,.cls-152,.cls-153,.cls-154,.cls-155,.cls-156,.cls-157,.cls-158,.cls-159,.cls-160,.cls-161,.cls-162,.cls-163,.cls-164,.cls-17,.cls-18,.cls-19,.cls-2,.cls-20,.cls-21,.cls-22,.cls-23,.cls-24,.cls-25,.cls-26,.cls-27,.cls-28,.cls-29,.cls-3,.cls-30,.cls-31,.cls-32,.cls-33,.cls-34,.cls-35,.cls-36,.cls-37,.cls-38,.cls-39,.cls-4,.cls-40,.cls-41,.cls-42,.cls-43,.cls-44,.cls-45,.cls-46,.cls-47,.cls-48,.cls-49,.cls-5,.cls-50,.cls-51,.cls-52,.cls-53,.cls-54,.cls-55,.cls-56,.cls-57,.cls-58,.cls-59,.cls-6,.cls-60,.cls-61,.cls-62,.cls-63,.cls-64,.cls-65,.cls-66,.cls-67,.cls-68,.cls-69,.cls-7,.cls-70,.cls-71,.cls-72,.cls-73,.cls-74,.cls-75,.cls-76,.cls-77,.cls-78,.cls-79,.cls-8,.cls-80,.cls-81,.cls-82,.cls-83,.cls-84,.cls-85,.cls-86,.cls-87,.cls-88,.cls-89,.cls-9,.cls-90,.cls-91,.cls-92,.cls-93,.cls-94,.cls-95,.cls-96,.cls-97,.cls-98,.cls-99{fill-rule:evenodd;}.cls-1{fill:url(#linear-gradient);}.cls-2{fill:url(#linear-gradient-2);}.cls-3{fill:url(#linear-gradient-3);}.cls-4{fill:url(#linear-gradient-4);}.cls-5{fill:url(#linear-gradient-5);}.cls-6{fill:url(#linear-gradient-6);}.cls-7{fill:url(#linear-gradient-7);}.cls-8{fill:url(#linear-gradient-8);}.cls-9{fill:url(#linear-gradient-9);}.cls-10{fill:url(#linear-gradient-10);}.cls-11{fill:url(#linear-gradient-11);}.cls-12{fill:url(#linear-gradient-12);}.cls-13{font-size:85.73px;font-family:ArialMT, Arial;}.cls-13,.cls-164{fill:#ae480b;}.cls-14{letter-spacing:0.09em;}.cls-15{letter-spacing:0.08em;}.cls-16{letter-spacing:0.08em;}.cls-17{fill:url(#linear-gradient-13);}.cls-18{fill:url(#linear-gradient-14);}.cls-19{fill:url(#linear-gradient-15);}.cls-20{fill:url(#linear-gradient-16);}.cls-21{fill:url(#linear-gradient-17);}.cls-22{fill:url(#linear-gradient-18);}.cls-23{fill:url(#linear-gradient-19);}.cls-24{fill:url(#linear-gradient-20);}.cls-25{fill:url(#linear-gradient-21);}.cls-26{fill:url(#linear-gradient-22);}.cls-27{fill:url(#linear-gradient-23);}.cls-28{fill:url(#linear-gradient-24);}.cls-29{fill:url(#linear-gradient-25);}.cls-30{fill:url(#linear-gradient-26);}.cls-31{fill:url(#linear-gradient-27);}.cls-32{fill:url(#linear-gradient-28);}.cls-33{fill:url(#linear-gradient-29);}.cls-34{fill:url(#linear-gradient-30);}.cls-35{fill:url(#linear-gradient-31);}.cls-36{fill:url(#linear-gradient-32);}.cls-37{fill:url(#linear-gradient-33);}.cls-38{fill:url(#linear-gradient-34);}.cls-39{fill:url(#linear-gradient-35);}.cls-40{fill:url(#linear-gradient-36);}.cls-41{fill:url(#linear-gradient-37);}.cls-42{fill:url(#linear-gradient-38);}.cls-43{fill:url(#linear-gradient-39);}.cls-44{fill:url(#linear-gradient-40);}.cls-45{fill:url(#linear-gradient-41);}.cls-46{fill:url(#linear-gradient-42);}.cls-47{fill:url(#linear-gradient-43);}.cls-48{fill:url(#linear-gradient-44);}.cls-49{fill:url(#linear-gradient-45);}.cls-50{fill:url(#linear-gradient-46);}.cls-51{fill:url(#linear-gradient-47);}.cls-52{fill:url(#linear-gradient-48);}.cls-53{fill:url(#linear-gradient-49);}.cls-54{fill:url(#linear-gradient-50);}.cls-55{fill:url(#linear-gradient-51);}.cls-56{fill:url(#linear-gradient-52);}.cls-57{fill:url(#linear-gradient-53);}.cls-58{fill:url(#linear-gradient-54);}.cls-59{fill:url(#linear-gradient-55);}.cls-60{fill:url(#linear-gradient-56);}.cls-61{fill:url(#linear-gradient-57);}.cls-62{fill:url(#linear-gradient-58);}.cls-63{fill:url(#linear-gradient-59);}.cls-64{fill:url(#linear-gradient-60);}.cls-65{fill:url(#linear-gradient-61);}.cls-66{fill:url(#linear-gradient-62);}.cls-67{fill:url(#linear-gradient-63);}.cls-68{fill:url(#linear-gradient-64);}.cls-69{fill:url(#linear-gradient-65);}.cls-70{fill:url(#linear-gradient-66);}.cls-71{fill:url(#linear-gradient-67);}.cls-72{fill:url(#linear-gradient-68);}.cls-73{fill:url(#linear-gradient-69);}.cls-74{fill:url(#linear-gradient-70);}.cls-75{fill:url(#linear-gradient-71);}.cls-76{fill:url(#linear-gradient-72);}.cls-77{fill:url(#linear-gradient-73);}.cls-78{fill:url(#linear-gradient-74);}.cls-79{fill:url(#linear-gradient-75);}.cls-80{fill:url(#linear-gradient-76);}.cls-81{fill:url(#linear-gradient-77);}.cls-82{fill:url(#linear-gradient-78);}.cls-83{fill:url(#linear-gradient-79);}.cls-84{fill:url(#linear-gradient-80);}.cls-85{fill:url(#linear-gradient-81);}.cls-86{fill:url(#linear-gradient-82);}.cls-87{fill:url(#linear-gradient-83);}.cls-88{fill:url(#linear-gradient-84);}.cls-89{fill:url(#linear-gradient-85);}.cls-90{fill:url(#linear-gradient-86);}.cls-91{fill:url(#linear-gradient-87);}.cls-92{fill:url(#linear-gradient-88);}.cls-93{fill:url(#linear-gradient-89);}.cls-94{fill:url(#linear-gradient-90);}.cls-95{fill:url(#linear-gradient-91);}.cls-96{fill:url(#linear-gradient-92);}.cls-97{fill:url(#linear-gradient-93);}.cls-98{fill:url(#linear-gradient-94);}.cls-99{fill:url(#linear-gradient-95);}.cls-100{fill:url(#linear-gradient-96);}.cls-101{fill:url(#linear-gradient-97);}.cls-102{fill:url(#linear-gradient-98);}.cls-103{fill:url(#linear-gradient-99);}.cls-104{fill:url(#linear-gradient-100);}.cls-105{fill:url(#linear-gradient-101);}.cls-106{fill:url(#linear-gradient-102);}.cls-107{fill:url(#linear-gradient-103);}.cls-108{fill:url(#linear-gradient-104);}.cls-109{fill:url(#linear-gradient-105);}.cls-110{fill:url(#linear-gradient-106);}.cls-111{fill:url(#linear-gradient-107);}.cls-112{fill:url(#linear-gradient-108);}.cls-113{fill:url(#linear-gradient-109);}.cls-114{fill:url(#linear-gradient-110);}.cls-115{fill:url(#linear-gradient-111);}.cls-116{fill:url(#linear-gradient-112);}.cls-117{fill:url(#linear-gradient-113);}.cls-118{fill:url(#linear-gradient-114);}.cls-119{fill:url(#linear-gradient-115);}.cls-120{fill:url(#linear-gradient-116);}.cls-121{fill:url(#linear-gradient-117);}.cls-122{fill:url(#linear-gradient-118);}.cls-123{fill:url(#linear-gradient-119);}.cls-124{fill:url(#linear-gradient-120);}.cls-125{fill:url(#linear-gradient-121);}.cls-126{fill:url(#linear-gradient-122);}.cls-127{fill:url(#linear-gradient-123);}.cls-128{fill:url(#linear-gradient-124);}.cls-129{fill:url(#linear-gradient-125);}.cls-130{fill:url(#linear-gradient-126);}.cls-131{fill:url(#linear-gradient-127);}.cls-132{fill:url(#linear-gradient-128);}.cls-133{fill:url(#linear-gradient-129);}.cls-134{fill:url(#linear-gradient-130);}.cls-135{fill:url(#linear-gradient-131);}.cls-136{fill:url(#linear-gradient-132);}.cls-137{fill:url(#linear-gradient-133);}.cls-138{fill:url(#linear-gradient-134);}.cls-139{fill:url(#linear-gradient-135);}.cls-140{fill:url(#linear-gradient-136);}.cls-141{fill:url(#linear-gradient-137);}.cls-142{fill:url(#linear-gradient-138);}.cls-143{fill:url(#linear-gradient-139);}.cls-144{fill:url(#linear-gradient-140);}.cls-145{fill:url(#linear-gradient-141);}.cls-146{fill:url(#linear-gradient-142);}.cls-147{fill:url(#linear-gradient-143);}.cls-148{fill:url(#linear-gradient-144);}.cls-149{fill:url(#linear-gradient-145);}.cls-150{fill:url(#linear-gradient-146);}.cls-151{fill:url(#linear-gradient-147);}.cls-152{fill:url(#linear-gradient-148);}.cls-153{fill:url(#linear-gradient-149);}.cls-154{fill:url(#linear-gradient-150);}.cls-155{fill:url(#linear-gradient-151);}.cls-156{fill:url(#linear-gradient-152);}.cls-157{fill:url(#linear-gradient-153);}.cls-158{fill:url(#linear-gradient-154);}.cls-159{fill:url(#linear-gradient-155);}.cls-160{fill:url(#linear-gradient-156);}.cls-161{fill:url(#linear-gradient-157);}.cls-162{fill:url(#linear-gradient-158);}.cls-163{fill:url(#linear-gradient-159);}</style><linearGradient id="linear-gradient" x1="-6.63" y1="24.41" x2="254.87" y2="22.91" gradientUnits="userSpaceOnUse"><stop offset="0.42" stop-color="#ae480b"/><stop offset="0.54" stop-color="#af4b0f" stop-opacity="0.98"/><stop offset="0.62" stop-color="#b4561d" stop-opacity="0.93"/><stop offset="0.7" stop-color="#bc6735" stop-opacity="0.83"/><stop offset="0.78" stop-color="#c78056" stop-opacity="0.69"/><stop offset="0.85" stop-color="#d5a080" stop-opacity="0.52"/><stop offset="0.92" stop-color="#e6c7b4" stop-opacity="0.31"/><stop offset="0.99" stop-color="#faf5f1" stop-opacity="0.06"/><stop offset="1" stop-color="#fff" stop-opacity="0"/></linearGradient><linearGradient id="linear-gradient-2" x1="-6.63" y1="24.5" x2="254.87" y2="23" xlink:href="#linear-gradient"/><linearGradient id="linear-gradient-3" x1="-6.63" y1="24.58" x2="254.87" y2="23.08" xlink:href="#linear-gradient"/><linearGradient id="linear-gradient-4" x1="-6.63" y1="24.66" x2="254.87" y2="23.17" xlink:href="#linear-gradient"/><linearGradient id="linear-gradient-5" x1="-6.63" y1="24.75" x2="254.87" y2="23.25" xlink:href="#linear-gradient"/><linearGradient id="linear-gradient-6" x1="-6.63" y1="24.83" x2="254.87" y2="23.33" xlink:href="#linear-gradient"/><linearGradient id="linear-gradient-7" x1="-6.63" y1="24.92" x2="254.87" y2="23.42" xlink:href="#linear-gradient"/><linearGradient id="linear-gradient-8" x1="-6.63" y1="25" x2="254.87" y2="23.5" xlink:href="#linear-gradient"/><linearGradient id="linear-gradient-9" x1="-6.63" y1="25.08" x2="254.87" y2="23.58" xlink:href="#linear-gradient"/><linearGradient id="linear-gradient-10" x1="-6.63" y1="25.17" x2="254.87" y2="23.67" xlink:href="#linear-gradient"/><linearGradient id="linear-gradient-11" x1="-6.63" y1="25.25" x2="254.87" y2="23.75" xlink:href="#linear-gradient"/><linearGradient id="linear-gradient-12" x1="-6.63" y1="25.33" x2="254.87" y2="23.84" xlink:href="#linear-gradient"/><linearGradient id="linear-gradient-13" x1="-5.51" y1="220.54" x2="255.99" y2="219.04" xlink:href="#linear-gradient"/><linearGradient id="linear-gradient-14" x1="-6.23" y1="94.09" x2="255.27" y2="92.59" xlink:href="#linear-gradient"/><linearGradient id="linear-gradient-15" x1="-5.62" y1="201.19" x2="255.88" y2="199.69" xlink:href="#linear-gradient"/><linearGradient id="linear-gradient-16" x1="-6.28" y1="86.77" x2="255.23" y2="85.27" xlink:href="#linear-gradient"/><linearGradient id="linear-gradient-17" x1="-6.29" y1="84.72" x2="255.21" y2="83.22" xlink:href="#linear-gradient"/><linearGradient id="linear-gradient-18" x1="-6.55" y1="38.71" x2="254.95" y2="37.21" xlink:href="#linear-gradient"/><linearGradient id="linear-gradient-19" x1="-6.55" y1="38.91" x2="254.95" y2="37.41" xlink:href="#linear-gradient"/><linearGradient id="linear-gradient-20" x1="-6.55" y1="39" x2="254.95" y2="37.5" xlink:href="#linear-gradient"/><linearGradient id="linear-gradient-21" x1="-6.55" y1="39.08" x2="254.95" y2="37.58" xlink:href="#linear-gradient"/><linearGradient id="linear-gradient-22" x1="-6.55" y1="39.16" x2="254.95" y2="37.67" xlink:href="#linear-gradient"/><linearGradient id="linear-gradient-23" x1="-6.55" y1="39.25" x2="254.95" y2="37.75" xlink:href="#linear-gradient"/><linearGradient id="linear-gradient-24" x1="-6.55" y1="39.33" x2="254.95" y2="37.83" xlink:href="#linear-gradient"/><linearGradient id="linear-gradient-25" x1="-6.55" y1="39.42" x2="254.95" y2="37.92" xlink:href="#linear-gradient"/><linearGradient id="linear-gradient-26" x1="-6.55" y1="39.5" x2="254.96" y2="38" xlink:href="#linear-gradient"/><linearGradient id="linear-gradient-27" x1="-6.55" y1="39.58" x2="254.96" y2="38.08" xlink:href="#linear-gradient"/><linearGradient id="linear-gradient-28" x1="-6.55" y1="39.67" x2="254.96" y2="38.17" xlink:href="#linear-gradient"/><linearGradient id="linear-gradient-29" x1="-6.55" y1="39.75" x2="254.96" y2="38.25" xlink:href="#linear-gradient"/><linearGradient id="linear-gradient-30" x1="-6.47" y1="52.95" x2="255.03" y2="51.45" xlink:href="#linear-gradient"/><linearGradient id="linear-gradient-31" x1="-6.47" y1="53.04" x2="255.03" y2="51.54" xlink:href="#linear-gradient"/><linearGradient id="linear-gradient-32" x1="-6.47" y1="53.1" x2="255.03" y2="51.6" xlink:href="#linear-gradient"/><linearGradient id="linear-gradient-33" x1="-6.47" y1="53.18" x2="255.03" y2="51.68" xlink:href="#linear-gradient"/><linearGradient id="linear-gradient-34" x1="-6.47" y1="53.27" x2="255.03" y2="51.77" xlink:href="#linear-gradient"/><linearGradient id="linear-gradient-35" x1="-6.47" y1="53.35" x2="255.03" y2="51.85" xlink:href="#linear-gradient"/><linearGradient id="linear-gradient-36" x1="-6.47" y1="53.44" x2="255.03" y2="51.94" xlink:href="#linear-gradient"/><linearGradient id="linear-gradient-37" x1="-6.47" y1="53.52" x2="255.04" y2="52.02" xlink:href="#linear-gradient"/><linearGradient id="linear-gradient-38" x1="-6.47" y1="53.6" x2="255.04" y2="52.1" xlink:href="#linear-gradient"/><linearGradient id="linear-gradient-39" x1="-6.47" y1="53.69" x2="255.04" y2="52.19" xlink:href="#linear-gradient"/><linearGradient id="linear-gradient-40" x1="-6.39" y1="67.35" x2="255.11" y2="65.85" xlink:href="#linear-gradient"/><linearGradient id="linear-gradient-41" x1="-6.39" y1="67.44" x2="255.12" y2="65.94" xlink:href="#linear-gradient"/><linearGradient id="linear-gradient-42" x1="-6.39" y1="67.52" x2="255.12" y2="66.02" xlink:href="#linear-gradient"/><linearGradient id="linear-gradient-43" x1="-6.39" y1="67.6" x2="255.12" y2="66.11" xlink:href="#linear-gradient"/><linearGradient id="linear-gradient-44" x1="-6.39" y1="67.69" x2="255.12" y2="66.19" xlink:href="#linear-gradient"/><linearGradient id="linear-gradient-45" x1="-6.38" y1="67.77" x2="255.12" y2="66.27" xlink:href="#linear-gradient"/><linearGradient id="linear-gradient-46" x1="-6.38" y1="67.86" x2="255.12" y2="66.36" xlink:href="#linear-gradient"/><linearGradient id="linear-gradient-47" x1="-6.38" y1="67.94" x2="255.12" y2="66.44" xlink:href="#linear-gradient"/><linearGradient id="linear-gradient-48" x1="-6.38" y1="68.02" x2="255.12" y2="66.52" xlink:href="#linear-gradient"/><linearGradient id="linear-gradient-49" x1="-6.31" y1="81.68" x2="255.2" y2="80.19" xlink:href="#linear-gradient"/><linearGradient id="linear-gradient-50" x1="-6.3" y1="81.77" x2="255.2" y2="80.27" xlink:href="#linear-gradient"/><linearGradient id="linear-gradient-51" x1="-6.3" y1="81.86" x2="255.2" y2="80.36" xlink:href="#linear-gradient"/><linearGradient id="linear-gradient-52" x1="-6.3" y1="81.94" x2="255.2" y2="80.44" xlink:href="#linear-gradient"/><linearGradient id="linear-gradient-53" x1="-6.3" y1="82.02" x2="255.2" y2="80.53" xlink:href="#linear-gradient"/><linearGradient id="linear-gradient-54" x1="-6.3" y1="82.11" x2="255.2" y2="80.61" xlink:href="#linear-gradient"/><linearGradient id="linear-gradient-55" x1="-6.3" y1="82.19" x2="255.2" y2="80.69" xlink:href="#linear-gradient"/><linearGradient id="linear-gradient-56" x1="-6.3" y1="82.28" x2="255.2" y2="80.78" xlink:href="#linear-gradient"/><linearGradient id="linear-gradient-57" x1="-6.3" y1="82.36" x2="255.2" y2="80.86" xlink:href="#linear-gradient"/><linearGradient id="linear-gradient-58" x1="-6.22" y1="96.02" x2="255.28" y2="94.52" xlink:href="#linear-gradient"/><linearGradient id="linear-gradient-59" x1="-6.22" y1="96.11" x2="255.28" y2="94.61" xlink:href="#linear-gradient"/><linearGradient id="linear-gradient-60" x1="-6.22" y1="96.19" x2="255.28" y2="94.69" xlink:href="#linear-gradient"/><linearGradient id="linear-gradient-61" x1="-6.22" y1="96.28" x2="255.28" y2="94.78" xlink:href="#linear-gradient"/><linearGradient id="linear-gradient-62" x1="-6.22" y1="96.36" x2="255.28" y2="94.86" xlink:href="#linear-gradient"/><linearGradient id="linear-gradient-63" x1="-6.22" y1="96.44" x2="255.28" y2="94.95" xlink:href="#linear-gradient"/><linearGradient id="linear-gradient-64" x1="-6.22" y1="96.53" x2="255.28" y2="95.03" xlink:href="#linear-gradient"/><linearGradient id="linear-gradient-65" x1="-6.22" y1="96.61" x2="255.28" y2="95.11" xlink:href="#linear-gradient"/><linearGradient id="linear-gradient-66" x1="-6.22" y1="96.7" x2="255.28" y2="95.2" xlink:href="#linear-gradient"/><linearGradient id="linear-gradient-67" x1="-6.14" y1="110.36" x2="255.36" y2="108.86" xlink:href="#linear-gradient"/><linearGradient id="linear-gradient-68" x1="-6.14" y1="110.45" x2="255.36" y2="108.95" xlink:href="#linear-gradient"/><linearGradient id="linear-gradient-69" x1="-6.14" y1="110.53" x2="255.36" y2="109.03" xlink:href="#linear-gradient"/><linearGradient id="linear-gradient-70" x1="-6.14" y1="110.61" x2="255.36" y2="109.11" xlink:href="#linear-gradient"/><linearGradient id="linear-gradient-71" x1="-6.14" y1="110.7" x2="255.36" y2="109.2" xlink:href="#linear-gradient"/><linearGradient id="linear-gradient-72" x1="-6.14" y1="110.78" x2="255.36" y2="109.28" xlink:href="#linear-gradient"/><linearGradient id="linear-gradient-73" x1="-6.14" y1="110.87" x2="255.36" y2="109.37" xlink:href="#linear-gradient"/><linearGradient id="linear-gradient-74" x1="-6.14" y1="110.95" x2="255.36" y2="109.45" xlink:href="#linear-gradient"/><linearGradient id="linear-gradient-75" x1="-6.14" y1="111.03" x2="255.36" y2="109.53" xlink:href="#linear-gradient"/><linearGradient id="linear-gradient-76" x1="-6.06" y1="124.7" x2="255.44" y2="123.21" xlink:href="#linear-gradient"/><linearGradient id="linear-gradient-77" x1="-6.06" y1="124.79" x2="255.44" y2="123.29" xlink:href="#linear-gradient"/><linearGradient id="linear-gradient-78" x1="-6.06" y1="124.88" x2="255.44" y2="123.38" xlink:href="#linear-gradient"/><linearGradient id="linear-gradient-79" x1="-6.06" y1="124.96" x2="255.44" y2="123.46" xlink:href="#linear-gradient"/><linearGradient id="linear-gradient-80" x1="-6.06" y1="125.04" x2="255.45" y2="123.55" xlink:href="#linear-gradient"/><linearGradient id="linear-gradient-81" x1="-6.06" y1="125.13" x2="255.45" y2="123.63" xlink:href="#linear-gradient"/><linearGradient id="linear-gradient-82" x1="-6.06" y1="125.21" x2="255.45" y2="123.71" xlink:href="#linear-gradient"/><linearGradient id="linear-gradient-83" x1="-6.06" y1="125.3" x2="255.45" y2="123.8" xlink:href="#linear-gradient"/><linearGradient id="linear-gradient-84" x1="-6.05" y1="125.38" x2="255.45" y2="123.88" xlink:href="#linear-gradient"/><linearGradient id="linear-gradient-85" x1="-5.98" y1="139.05" x2="255.53" y2="137.55" xlink:href="#linear-gradient"/><linearGradient id="linear-gradient-86" x1="-5.98" y1="139.14" x2="255.53" y2="137.64" xlink:href="#linear-gradient"/><linearGradient id="linear-gradient-87" x1="-5.98" y1="139.22" x2="255.53" y2="137.72" xlink:href="#linear-gradient"/><linearGradient id="linear-gradient-88" x1="-5.97" y1="139.31" x2="255.53" y2="137.81" xlink:href="#linear-gradient"/><linearGradient id="linear-gradient-89" x1="-5.97" y1="139.39" x2="255.53" y2="137.89" xlink:href="#linear-gradient"/><linearGradient id="linear-gradient-90" x1="-5.97" y1="139.47" x2="255.53" y2="137.98" xlink:href="#linear-gradient"/><linearGradient id="linear-gradient-91" x1="-5.97" y1="139.56" x2="255.53" y2="138.06" xlink:href="#linear-gradient"/><linearGradient id="linear-gradient-92" x1="-5.97" y1="139.64" x2="255.53" y2="138.14" xlink:href="#linear-gradient"/><linearGradient id="linear-gradient-93" x1="-5.97" y1="139.73" x2="255.53" y2="138.23" xlink:href="#linear-gradient"/><linearGradient id="linear-gradient-94" x1="-5.89" y1="153.39" x2="255.61" y2="151.89" xlink:href="#linear-gradient"/><linearGradient id="linear-gradient-95" x1="-5.89" y1="153.48" x2="255.61" y2="151.98" xlink:href="#linear-gradient"/><linearGradient id="linear-gradient-96" x1="-5.89" y1="153.56" x2="255.61" y2="152.06" xlink:href="#linear-gradient"/><linearGradient id="linear-gradient-97" x1="-5.89" y1="153.64" x2="255.61" y2="152.14" xlink:href="#linear-gradient"/><linearGradient id="linear-gradient-98" x1="-5.89" y1="153.73" x2="255.61" y2="152.23" xlink:href="#linear-gradient"/><linearGradient id="linear-gradient-99" x1="-5.89" y1="153.81" x2="255.61" y2="152.31" xlink:href="#linear-gradient"/><linearGradient id="linear-gradient-100" x1="-5.89" y1="153.89" x2="255.61" y2="152.4" xlink:href="#linear-gradient"/><linearGradient id="linear-gradient-101" x1="-5.89" y1="153.98" x2="255.61" y2="152.48" xlink:href="#linear-gradient"/><linearGradient id="linear-gradient-102" x1="-5.89" y1="154.06" x2="255.61" y2="152.56" xlink:href="#linear-gradient"/><linearGradient id="linear-gradient-103" x1="-5.81" y1="167.72" x2="255.69" y2="166.23" xlink:href="#linear-gradient"/><linearGradient id="linear-gradient-104" x1="-5.81" y1="167.81" x2="255.69" y2="166.31" xlink:href="#linear-gradient"/><linearGradient id="linear-gradient-105" x1="-5.81" y1="167.9" x2="255.69" y2="166.4" xlink:href="#linear-gradient"/><linearGradient id="linear-gradient-106" x1="-5.81" y1="167.98" x2="255.69" y2="166.48" xlink:href="#linear-gradient"/><linearGradient id="linear-gradient-107" x1="-5.81" y1="168.06" x2="255.69" y2="166.56" xlink:href="#linear-gradient"/><linearGradient id="linear-gradient-108" x1="-5.81" y1="168.15" x2="255.69" y2="166.65" xlink:href="#linear-gradient"/><linearGradient id="linear-gradient-109" x1="-5.81" y1="168.23" x2="255.69" y2="166.73" xlink:href="#linear-gradient"/><linearGradient id="linear-gradient-110" x1="-5.81" y1="168.32" x2="255.69" y2="166.82" xlink:href="#linear-gradient"/><linearGradient id="linear-gradient-111" x1="-5.81" y1="168.4" x2="255.69" y2="166.9" xlink:href="#linear-gradient"/><linearGradient id="linear-gradient-112" x1="-5.73" y1="182.15" x2="255.77" y2="180.65" xlink:href="#linear-gradient"/><linearGradient id="linear-gradient-113" x1="-5.73" y1="182.23" x2="255.77" y2="180.73" xlink:href="#linear-gradient"/><linearGradient id="linear-gradient-114" x1="-5.73" y1="182.32" x2="255.77" y2="180.82" xlink:href="#linear-gradient"/><linearGradient id="linear-gradient-115" x1="-5.73" y1="182.4" x2="255.77" y2="180.9" xlink:href="#linear-gradient"/><linearGradient id="linear-gradient-116" x1="-5.73" y1="182.48" x2="255.77" y2="180.99" xlink:href="#linear-gradient"/><linearGradient id="linear-gradient-117" x1="-5.73" y1="182.57" x2="255.77" y2="181.07" xlink:href="#linear-gradient"/><linearGradient id="linear-gradient-118" x1="-5.73" y1="182.65" x2="255.78" y2="181.15" xlink:href="#linear-gradient"/><linearGradient id="linear-gradient-119" x1="-5.73" y1="182.74" x2="255.78" y2="181.24" xlink:href="#linear-gradient"/><linearGradient id="linear-gradient-120" x1="-5.65" y1="196.49" x2="255.85" y2="194.99" xlink:href="#linear-gradient"/><linearGradient id="linear-gradient-121" x1="-5.67" y1="192.73" x2="255.83" y2="191.23" xlink:href="#linear-gradient"/><linearGradient id="linear-gradient-122" x1="-5.65" y1="196.65" x2="255.86" y2="195.15" xlink:href="#linear-gradient"/><linearGradient id="linear-gradient-123" x1="-5.65" y1="196.74" x2="255.86" y2="195.24" xlink:href="#linear-gradient"/><linearGradient id="linear-gradient-124" x1="-5.65" y1="196.82" x2="255.86" y2="195.32" xlink:href="#linear-gradient"/><linearGradient id="linear-gradient-125" x1="-5.64" y1="196.9" x2="255.86" y2="195.41" xlink:href="#linear-gradient"/><linearGradient id="linear-gradient-126" x1="-5.64" y1="196.99" x2="255.86" y2="195.49" xlink:href="#linear-gradient"/><linearGradient id="linear-gradient-127" x1="-5.64" y1="197.07" x2="255.86" y2="195.57" xlink:href="#linear-gradient"/><linearGradient id="linear-gradient-128" x1="-5.68" y1="190.63" x2="255.82" y2="189.14" xlink:href="#linear-gradient"/><linearGradient id="linear-gradient-129" x1="-5.6" y1="205.02" x2="255.9" y2="203.52" xlink:href="#linear-gradient"/><linearGradient id="linear-gradient-130" x1="-5.56" y1="210.99" x2="255.94" y2="209.49" xlink:href="#linear-gradient"/><linearGradient id="linear-gradient-131" x1="-5.56" y1="211.07" x2="255.94" y2="209.57" xlink:href="#linear-gradient"/><linearGradient id="linear-gradient-132" x1="-5.56" y1="211.16" x2="255.94" y2="209.66" xlink:href="#linear-gradient"/><linearGradient id="linear-gradient-133" x1="-5.56" y1="211.24" x2="255.94" y2="209.74" xlink:href="#linear-gradient"/><linearGradient id="linear-gradient-134" x1="-5.56" y1="211.32" x2="255.94" y2="209.83" xlink:href="#linear-gradient"/><linearGradient id="linear-gradient-135" x1="-5.56" y1="211.41" x2="255.94" y2="209.91" xlink:href="#linear-gradient"/><linearGradient id="linear-gradient-136" x1="-5.48" y1="225.33" x2="256.02" y2="223.83" xlink:href="#linear-gradient"/><linearGradient id="linear-gradient-137" x1="-5.48" y1="225.41" x2="256.02" y2="223.91" xlink:href="#linear-gradient"/><linearGradient id="linear-gradient-138" x1="-5.48" y1="225.49" x2="256.02" y2="224" xlink:href="#linear-gradient"/><linearGradient id="linear-gradient-139" x1="-5.48" y1="225.58" x2="256.02" y2="224.08" xlink:href="#linear-gradient"/><linearGradient id="linear-gradient-140" x1="-5.48" y1="225.66" x2="256.02" y2="224.16" xlink:href="#linear-gradient"/><linearGradient id="linear-gradient-141" x1="-5.48" y1="225.75" x2="256.02" y2="224.25" xlink:href="#linear-gradient"/><linearGradient id="linear-gradient-142" x1="-5.4" y1="239.66" x2="256.1" y2="238.16" xlink:href="#linear-gradient"/><linearGradient id="linear-gradient-143" x1="-5.4" y1="239.75" x2="256.1" y2="238.25" xlink:href="#linear-gradient"/><linearGradient id="linear-gradient-144" x1="-5.4" y1="239.83" x2="256.1" y2="238.33" xlink:href="#linear-gradient"/><linearGradient id="linear-gradient-145" x1="-5.4" y1="239.91" x2="256.1" y2="238.41" xlink:href="#linear-gradient"/><linearGradient id="linear-gradient-146" x1="-5.4" y1="240" x2="256.1" y2="238.5" xlink:href="#linear-gradient"/><linearGradient id="linear-gradient-147" x1="-5.4" y1="240.08" x2="256.1" y2="238.58" xlink:href="#linear-gradient"/><linearGradient id="linear-gradient-148" x1="-5.32" y1="254" x2="256.18" y2="252.5" xlink:href="#linear-gradient"/><linearGradient id="linear-gradient-149" x1="-5.32" y1="254.08" x2="256.18" y2="252.58" xlink:href="#linear-gradient"/><linearGradient id="linear-gradient-150" x1="-5.32" y1="254.17" x2="256.19" y2="252.67" xlink:href="#linear-gradient"/><linearGradient id="linear-gradient-151" x1="-5.32" y1="254.25" x2="256.19" y2="252.75" xlink:href="#linear-gradient"/><linearGradient id="linear-gradient-152" x1="-5.32" y1="254.33" x2="256.19" y2="252.84" xlink:href="#linear-gradient"/><linearGradient id="linear-gradient-153" x1="-5.32" y1="254.42" x2="256.19" y2="252.92" xlink:href="#linear-gradient"/><linearGradient id="linear-gradient-154" x1="-5.3" y1="256.34" x2="256.2" y2="254.84" xlink:href="#linear-gradient"/><linearGradient id="linear-gradient-155" x1="-5.3" y1="256.42" x2="256.2" y2="254.92" xlink:href="#linear-gradient"/><linearGradient id="linear-gradient-156" x1="-5.3" y1="256.5" x2="256.2" y2="255" xlink:href="#linear-gradient"/><linearGradient id="linear-gradient-157" x1="-5.3" y1="256.59" x2="256.2" y2="255.09" xlink:href="#linear-gradient"/><linearGradient id="linear-gradient-158" x1="-5.3" y1="256.67" x2="256.2" y2="255.17" xlink:href="#linear-gradient"/><linearGradient id="linear-gradient-159" x1="-5.3" y1="256.75" x2="256.2" y2="255.26" xlink:href="#linear-gradient"/></defs><polyline class="cls-1" points="96.73 19.68 99.36 21.64 99.82 24.89 97.85 27.52 94.6 27.98 91.98 25.99 91.52 22.74 93.48 20.12 96.73 19.68"/><polyline class="cls-2" points="111.37 19.68 114 21.64 114.45 24.89 112.47 27.52 109.22 27.98 106.62 25.99 106.16 22.74 108.12 20.12 111.37 19.68"/><polyline class="cls-3" points="126.01 19.68 128.63 21.64 129.09 24.89 127.11 27.52 123.86 27.98 121.25 25.99 120.79 22.74 122.76 20.12 126.01 19.68"/><polyline class="cls-4" points="140.64 19.68 143.27 21.64 143.71 24.89 141.75 27.52 138.5 27.98 135.87 25.99 135.43 22.74 137.4 20.12 140.64 19.68"/><polyline class="cls-5" points="155.28 19.68 157.89 21.64 158.35 24.89 156.38 27.52 153.14 27.98 150.51 25.99 150.05 22.74 152.03 20.12 155.28 19.68"/><polyline class="cls-6" points="169.92 19.68 172.53 21.64 172.99 24.89 171.02 27.52 167.77 27.98 165.15 25.99 164.68 22.74 166.67 20.12 169.92 19.68"/><polyline class="cls-7" points="184.54 19.68 187.16 21.64 187.63 24.89 185.66 27.52 182.41 27.98 179.78 25.99 179.32 22.74 181.29 20.12 184.54 19.68"/><polyline class="cls-8" points="199.17 19.68 201.8 21.64 202.26 24.89 200.28 27.52 197.03 27.98 194.42 25.99 193.96 22.74 195.93 20.12 199.17 19.68"/><polyline class="cls-9" points="213.81 19.68 216.44 21.64 216.9 24.89 214.91 27.52 211.67 27.98 209.06 25.99 208.6 22.74 210.56 20.12 213.81 19.68"/><polyline class="cls-10" points="228.45 19.68 231.08 21.64 231.52 24.89 229.55 27.52 226.3 27.98 223.68 25.99 223.24 22.74 225.2 20.12 228.45 19.68"/><polyline class="cls-11" points="243.09 19.68 245.69 21.64 246.16 24.89 244.19 27.52 240.94 27.98 238.31 25.99 237.85 22.74 239.84 20.12 243.09 19.68"/><polyline class="cls-12" points="257.73 19.68 260.33 21.64 260.79 24.89 258.83 27.52 255.58 27.98 252.95 25.99 252.49 22.74 254.48 20.12 257.73 19.68"/><text class="cls-13" transform="translate(339.65 85.57) scale(1.14 1)"><tspan class="cls-14">Residen</tspan><tspan x="367.33" y="0">t</tspan></text><text class="cls-13" transform="translate(342.34 180.02) scale(1.14 1)"><tspan class="cls-15">Architect</tspan><tspan x="394.44" y="0">s</tspan></text><text class="cls-13" transform="translate(342.34 269.07) scale(1.14 1)"><tspan class="cls-16">Limite</tspan><tspan x="270.85" y="0">d</tspan></text><polyline class="cls-17" points="118.43 180.31 100.48 201.06 100.48 261.28 133.26 261.28 133.26 201.06 140.94 201.06 140.94 268.94 92.8 268.94 92.8 198.22 116.66 170.6 138.86 182.78 135.17 189.51 118.43 180.31"/><polyline class="cls-18" points="55.3 135.96 47.2 140.55 40.14 144.56 40.14 54.77 85.38 24.21 89.51 30.32 47.52 58.7 47.52 131.88 55.6 127.29 99.82 156.73 95.73 162.87 55.3 135.96"/><path class="cls-19" d="M40.14,261.36V144.48l-32.74,18v98.88H40.14M45.58,133l0,8.46,2-1.1V268.76H0V158.11L45.58,133"/><polyline class="cls-20" points="88.81 103.87 80.59 99.9 75.16 92.56 73.73 83.56 76.64 74.92 83.24 68.6 86.32 73.95 81.09 79.59 79.99 87.19 83.38 94.07 90.09 97.82 88.81 103.87"/><polyline class="cls-21" points="102.31 101.75 99.22 96.37 104.45 90.76 105.55 83.16 102.16 76.26 95.47 72.53 96.73 66.48 104.95 70.45 110.41 77.77 111.83 86.79 108.9 95.43 102.31 101.75"/><polyline class="cls-22" points="110.94 33.89 113.57 35.86 114.03 39.1 112.07 41.73 108.82 42.19 106.19 40.21 105.73 36.96 107.72 34.35 110.94 33.89"/><polyline class="cls-23" points="111.37 34.09 114 36.06 114.45 39.31 112.47 41.93 109.22 42.39 106.62 40.41 106.16 37.16 108.12 34.55 111.37 34.09"/><polyline class="cls-24" points="126.01 34.09 128.63 36.06 129.09 39.31 127.11 41.93 123.86 42.39 121.25 40.41 120.79 37.16 122.76 34.55 126.01 34.09"/><polyline class="cls-25" points="140.64 34.09 143.27 36.06 143.71 39.31 141.75 41.93 138.5 42.39 135.87 40.41 135.43 37.16 137.4 34.55 140.64 34.09"/><polyline class="cls-26" points="155.28 34.09 157.89 36.06 158.35 39.31 156.38 41.93 153.14 42.39 150.51 40.41 150.05 37.16 152.03 34.55 155.28 34.09"/><polyline class="cls-27" points="169.92 34.09 172.53 36.06 172.99 39.31 171.02 41.93 167.77 42.39 165.15 40.41 164.68 37.16 166.67 34.55 169.92 34.09"/><polyline class="cls-28" points="184.54 34.09 187.16 36.06 187.63 39.31 185.66 41.93 182.41 42.39 179.78 40.41 179.32 37.16 181.29 34.55 184.54 34.09"/><polyline class="cls-29" points="199.17 34.09 201.8 36.06 202.26 39.31 200.28 41.93 197.03 42.39 194.42 40.41 193.96 37.16 195.93 34.55 199.17 34.09"/><polyline class="cls-30" points="213.81 34.09 216.44 36.06 216.9 39.31 214.91 41.93 211.67 42.39 209.06 40.41 208.6 37.16 210.56 34.55 213.81 34.09"/><polyline class="cls-31" points="228.45 34.09 231.08 36.06 231.52 39.31 229.55 41.93 226.3 42.39 223.68 40.41 223.24 37.16 225.2 34.55 228.45 34.09"/><polyline class="cls-32" points="243.09 34.09 245.69 36.06 246.16 39.31 244.19 41.93 240.94 42.39 238.31 40.41 237.85 37.16 239.84 34.55 243.09 34.09"/><polyline class="cls-33" points="257.73 34.09 260.33 36.06 260.79 39.31 258.83 41.93 255.58 42.39 252.95 40.41 252.49 37.16 254.48 34.55 257.73 34.09"/><polyline class="cls-34" points="129.53 48.03 132.16 49.99 132.62 53.24 130.64 55.87 127.39 56.33 124.76 54.37 124.32 51.12 126.29 48.49 129.53 48.03"/><polyline class="cls-35" points="144.17 48.03 146.78 49.99 147.24 53.24 145.28 55.87 142.03 56.33 139.4 54.37 138.94 51.12 140.92 48.49 144.17 48.03"/><polyline class="cls-36" points="155.28 48.03 157.89 49.99 158.35 53.24 156.38 55.87 153.14 56.33 150.51 54.37 150.05 51.12 152.03 48.49 155.28 48.03"/><polyline class="cls-37" points="169.92 48.03 172.53 49.99 172.99 53.24 171.02 55.87 167.77 56.33 165.15 54.37 164.68 51.12 166.67 48.49 169.92 48.03"/><polyline class="cls-38" points="184.54 48.03 187.16 49.99 187.63 53.24 185.66 55.87 182.41 56.33 179.78 54.37 179.32 51.12 181.29 48.49 184.54 48.03"/><polyline class="cls-39" points="199.17 48.03 201.8 49.99 202.26 53.24 200.28 55.87 197.03 56.33 194.42 54.37 193.96 51.12 195.93 48.49 199.17 48.03"/><polyline class="cls-40" points="213.81 48.03 216.44 49.99 216.9 53.24 214.91 55.87 211.67 56.33 209.06 54.37 208.6 51.12 210.56 48.49 213.81 48.03"/><polyline class="cls-41" points="228.45 48.03 231.08 49.99 231.52 53.24 229.55 55.87 226.3 56.33 223.68 54.37 223.24 51.12 225.2 48.49 228.45 48.03"/><polyline class="cls-42" points="243.09 48.03 245.69 49.99 246.16 53.24 244.19 55.87 240.94 56.33 238.31 54.37 237.85 51.12 239.84 48.49 243.09 48.03"/><polyline class="cls-43" points="257.73 48.03 260.33 49.99 260.79 53.24 258.83 55.87 255.58 56.33 252.95 54.37 252.49 51.12 254.48 48.49 257.73 48.03"/><polyline class="cls-44" points="139.88 62.37 142.51 64.35 142.97 67.6 140.98 70.2 137.74 70.67 135.13 68.7 134.67 65.45 136.63 62.83 139.88 62.37"/><polyline class="cls-45" points="155.28 62.37 157.89 64.35 158.35 67.6 156.38 70.2 153.14 70.67 150.51 68.7 150.05 65.45 152.03 62.83 155.28 62.37"/><polyline class="cls-46" points="169.92 62.37 172.53 64.35 172.99 67.6 171.02 70.2 167.77 70.67 165.15 68.7 164.68 65.45 166.67 62.83 169.92 62.37"/><polyline class="cls-47" points="184.54 62.37 187.16 64.35 187.63 67.6 185.66 70.2 182.41 70.67 179.78 68.7 179.32 65.45 181.29 62.83 184.54 62.37"/><polyline class="cls-48" points="199.17 62.37 201.8 64.35 202.26 67.6 200.28 70.2 197.03 70.67 194.42 68.7 193.96 65.45 195.93 62.83 199.17 62.37"/><polyline class="cls-49" points="213.81 62.37 216.44 64.35 216.9 67.6 214.91 70.2 211.67 70.67 209.06 68.7 208.6 65.45 210.56 62.83 213.81 62.37"/><polyline class="cls-50" points="228.45 62.37 231.08 64.35 231.52 67.6 229.55 70.2 226.3 70.67 223.68 68.7 223.24 65.45 225.2 62.83 228.45 62.37"/><polyline class="cls-51" points="243.09 62.37 245.69 64.35 246.16 67.6 244.19 70.2 240.94 70.67 238.31 68.7 237.85 65.45 239.84 62.83 243.09 62.37"/><polyline class="cls-52" points="257.73 62.37 260.33 64.35 260.79 67.6 258.83 70.2 255.58 70.67 252.95 68.7 252.49 65.45 254.48 62.83 257.73 62.37"/><polyline class="cls-53" points="139.88 76.7 142.51 78.69 142.97 81.94 140.98 84.54 137.74 85 135.13 83.04 134.67 79.79 136.63 77.16 139.88 76.7"/><polyline class="cls-54" points="155.28 76.7 157.89 78.69 158.35 81.94 156.38 84.54 153.14 85 150.51 83.04 150.05 79.79 152.03 77.16 155.28 76.7"/><polyline class="cls-55" points="169.92 76.7 172.53 78.69 172.99 81.94 171.02 84.54 167.77 85 165.15 83.04 164.68 79.79 166.67 77.16 169.92 76.7"/><polyline class="cls-56" points="184.54 76.7 187.16 78.69 187.63 81.94 185.66 84.54 182.41 85 179.78 83.04 179.32 79.79 181.29 77.16 184.54 76.7"/><polyline class="cls-57" points="199.17 76.7 201.8 78.69 202.26 81.94 200.28 84.54 197.03 85 194.42 83.04 193.96 79.79 195.93 77.16 199.17 76.7"/><polyline class="cls-58" points="213.81 76.7 216.44 78.69 216.9 81.94 214.91 84.54 211.67 85 209.06 83.04 208.6 79.79 210.56 77.16 213.81 76.7"/><polyline class="cls-59" points="228.45 76.7 231.08 78.69 231.52 81.94 229.55 84.54 226.3 85 223.68 83.04 223.24 79.79 225.2 77.16 228.45 76.7"/><polyline class="cls-60" points="243.09 76.7 245.69 78.69 246.16 81.94 244.19 84.54 240.94 85 238.31 83.04 237.85 79.79 239.84 77.16 243.09 76.7"/><polyline class="cls-61" points="257.73 76.7 260.33 78.69 260.79 81.94 258.83 84.54 255.58 85 252.95 83.04 252.49 79.79 254.48 77.16 257.73 76.7"/><polyline class="cls-62" points="139.88 91.04 142.51 93.02 142.97 96.27 140.98 98.88 137.74 99.34 135.13 97.38 134.67 94.13 136.63 91.5 139.88 91.04"/><polyline class="cls-63" points="155.28 91.04 157.89 93.02 158.35 96.27 156.38 98.88 153.14 99.34 150.51 97.38 150.05 94.13 152.03 91.5 155.28 91.04"/><polyline class="cls-64" points="169.92 91.04 172.53 93.02 172.99 96.27 171.02 98.88 167.77 99.34 165.15 97.38 164.68 94.13 166.67 91.5 169.92 91.04"/><polyline class="cls-65" points="184.54 91.04 187.16 93.02 187.63 96.27 185.66 98.88 182.41 99.34 179.78 97.38 179.32 94.13 181.29 91.5 184.54 91.04"/><polyline class="cls-66" points="199.17 91.04 201.8 93.02 202.26 96.27 200.28 98.88 197.03 99.34 194.42 97.38 193.96 94.13 195.93 91.5 199.17 91.04"/><polyline class="cls-67" points="213.81 91.04 216.44 93.02 216.9 96.27 214.91 98.88 211.67 99.34 209.06 97.38 208.6 94.13 210.56 91.5 213.81 91.04"/><polyline class="cls-68" points="228.45 91.04 231.08 93.02 231.52 96.27 229.55 98.88 226.3 99.34 223.68 97.38 223.24 94.13 225.2 91.5 228.45 91.04"/><polyline class="cls-69" points="243.09 91.04 245.69 93.02 246.16 96.27 244.19 98.88 240.94 99.34 238.31 97.38 237.85 94.13 239.84 91.5 243.09 91.04"/><polyline class="cls-70" points="257.73 91.04 260.33 93.02 260.79 96.27 258.83 98.88 255.58 99.34 252.95 97.38 252.49 94.13 254.48 91.5 257.73 91.04"/><polyline class="cls-71" points="139.88 105.38 142.51 107.36 142.97 110.61 140.98 113.24 137.74 113.68 135.13 111.71 134.67 108.46 136.63 105.84 139.88 105.38"/><polyline class="cls-72" points="155.28 105.38 157.89 107.36 158.35 110.61 156.38 113.24 153.14 113.68 150.51 111.71 150.05 108.46 152.03 105.84 155.28 105.38"/><polyline class="cls-73" points="169.92 105.38 172.53 107.36 172.99 110.61 171.02 113.24 167.77 113.68 165.15 111.71 164.68 108.46 166.67 105.84 169.92 105.38"/><polyline class="cls-74" points="184.54 105.38 187.16 107.36 187.63 110.61 185.66 113.24 182.41 113.68 179.78 111.71 179.32 108.46 181.29 105.84 184.54 105.38"/><polyline class="cls-75" points="199.17 105.38 201.8 107.36 202.26 110.61 200.28 113.24 197.03 113.68 194.42 111.71 193.96 108.46 195.93 105.84 199.17 105.38"/><polyline class="cls-76" points="213.81 105.38 216.44 107.36 216.9 110.61 214.91 113.24 211.67 113.68 209.06 111.71 208.6 108.46 210.56 105.84 213.81 105.38"/><polyline class="cls-77" points="228.45 105.38 231.08 107.36 231.52 110.61 229.55 113.24 226.3 113.68 223.68 111.71 223.24 108.46 225.2 105.84 228.45 105.38"/><polyline class="cls-78" points="243.09 105.38 245.69 107.36 246.16 110.61 244.19 113.24 240.94 113.68 238.31 111.71 237.85 108.46 239.84 105.84 243.09 105.38"/><polyline class="cls-79" points="257.73 105.38 260.33 107.36 260.79 110.61 258.83 113.24 255.58 113.68 252.95 111.71 252.49 108.46 254.48 105.84 257.73 105.38"/><polyline class="cls-80" points="139.88 119.73 142.51 121.7 142.97 124.95 140.98 127.57 137.74 128.01 135.13 126.05 134.67 122.8 136.63 120.17 139.88 119.73"/><polyline class="cls-81" points="155.28 119.73 157.89 121.7 158.35 124.95 156.38 127.57 153.14 128.01 150.51 126.05 150.05 122.8 152.03 120.17 155.28 119.73"/><polyline class="cls-82" points="169.92 119.73 172.53 121.7 172.99 124.95 171.02 127.57 167.77 128.01 165.15 126.05 164.68 122.8 166.67 120.17 169.92 119.73"/><polyline class="cls-83" points="184.54 119.73 187.16 121.7 187.63 124.95 185.66 127.57 182.41 128.01 179.78 126.05 179.32 122.8 181.29 120.17 184.54 119.73"/><polyline class="cls-84" points="199.17 119.73 201.8 121.7 202.26 124.95 200.28 127.57 197.03 128.01 194.42 126.05 193.96 122.8 195.93 120.17 199.17 119.73"/><polyline class="cls-85" points="213.81 119.73 216.44 121.7 216.9 124.95 214.91 127.57 211.67 128.01 209.06 126.05 208.6 122.8 210.56 120.17 213.81 119.73"/><polyline class="cls-86" points="228.45 119.73 231.08 121.7 231.52 124.95 229.55 127.57 226.3 128.01 223.68 126.05 223.24 122.8 225.2 120.17 228.45 119.73"/><polyline class="cls-87" points="243.09 119.73 245.69 121.7 246.16 124.95 244.19 127.57 240.94 128.01 238.31 126.05 237.85 122.8 239.84 120.17 243.09 119.73"/><polyline class="cls-88" points="257.73 119.73 260.33 121.7 260.79 124.95 258.83 127.57 255.58 128.01 252.95 126.05 252.49 122.8 254.48 120.17 257.73 119.73"/><polyline class="cls-89" points="139.88 134.07 142.51 136.03 142.97 139.28 140.98 141.91 137.74 142.37 135.13 140.39 134.67 137.14 136.63 134.53 139.88 134.07"/><polyline class="cls-90" points="155.28 134.07 157.89 136.03 158.35 139.28 156.38 141.91 153.14 142.37 150.51 140.39 150.05 137.14 152.03 134.53 155.28 134.07"/><polyline class="cls-91" points="169.92 134.07 172.53 136.03 172.99 139.28 171.02 141.91 167.77 142.37 165.15 140.39 164.68 137.14 166.67 134.53 169.92 134.07"/><polyline class="cls-92" points="184.54 134.07 187.16 136.03 187.63 139.28 185.66 141.91 182.41 142.37 179.78 140.39 179.32 137.14 181.29 134.53 184.54 134.07"/><polyline class="cls-93" points="199.17 134.07 201.8 136.03 202.26 139.28 200.28 141.91 197.03 142.37 194.42 140.39 193.96 137.14 195.93 134.53 199.17 134.07"/><polyline class="cls-94" points="213.81 134.07 216.44 136.03 216.9 139.28 214.91 141.91 211.67 142.37 209.06 140.39 208.6 137.14 210.56 134.53 213.81 134.07"/><polyline class="cls-95" points="228.45 134.07 231.08 136.03 231.52 139.28 229.55 141.91 226.3 142.37 223.68 140.39 223.24 137.14 225.2 134.53 228.45 134.07"/><polyline class="cls-96" points="243.09 134.07 245.69 136.03 246.16 139.28 244.19 141.91 240.94 142.37 238.31 140.39 237.85 137.14 239.84 134.53 243.09 134.07"/><polyline class="cls-97" points="257.73 134.07 260.33 136.03 260.79 139.28 258.83 141.91 255.58 142.37 252.95 140.39 252.49 137.14 254.48 134.53 257.73 134.07"/><polyline class="cls-98" points="139.88 148.41 142.51 150.37 142.97 153.62 140.98 156.25 137.74 156.71 135.13 154.72 134.67 151.47 136.63 148.87 139.88 148.41"/><polyline class="cls-99" points="155.28 148.41 157.89 150.37 158.35 153.62 156.38 156.25 153.14 156.71 150.51 154.72 150.05 151.47 152.03 148.87 155.28 148.41"/><polyline class="cls-100" points="169.92 148.41 172.53 150.37 172.99 153.62 171.02 156.25 167.77 156.71 165.15 154.72 164.68 151.47 166.67 148.87 169.92 148.41"/><polyline class="cls-101" points="184.54 148.41 187.16 150.37 187.63 153.62 185.66 156.25 182.41 156.71 179.78 154.72 179.32 151.47 181.29 148.87 184.54 148.41"/><polyline class="cls-102" points="199.17 148.41 201.8 150.37 202.26 153.62 200.28 156.25 197.03 156.71 194.42 154.72 193.96 151.47 195.93 148.87 199.17 148.41"/><polyline class="cls-103" points="213.81 148.41 216.44 150.37 216.9 153.62 214.91 156.25 211.67 156.71 209.06 154.72 208.6 151.47 210.56 148.87 213.81 148.41"/><polyline class="cls-104" points="228.45 148.41 231.08 150.37 231.52 153.62 229.55 156.25 226.3 156.71 223.68 154.72 223.24 151.47 225.2 148.87 228.45 148.41"/><polyline class="cls-105" points="243.09 148.41 245.69 150.37 246.16 153.62 244.19 156.25 240.94 156.71 238.31 154.72 237.85 151.47 239.84 148.87 243.09 148.41"/><polyline class="cls-106" points="257.73 148.41 260.33 150.37 260.79 153.62 258.83 156.25 255.58 156.71 252.95 154.72 252.49 151.47 254.48 148.87 257.73 148.41"/><polyline class="cls-107" points="139.88 162.74 142.51 164.71 142.97 167.96 140.98 170.58 137.74 171.05 135.13 169.06 134.67 165.81 136.63 163.21 139.88 162.74"/><polyline class="cls-108" points="155.28 162.74 157.89 164.71 158.35 167.96 156.38 170.58 153.14 171.05 150.51 169.06 150.05 165.81 152.03 163.21 155.28 162.74"/><polyline class="cls-109" points="169.92 162.74 172.53 164.71 172.99 167.96 171.02 170.58 167.77 171.05 165.15 169.06 164.68 165.81 166.67 163.21 169.92 162.74"/><polyline class="cls-110" points="184.54 162.74 187.16 164.71 187.63 167.96 185.66 170.58 182.41 171.05 179.78 169.06 179.32 165.81 181.29 163.21 184.54 162.74"/><polyline class="cls-111" points="199.17 162.74 201.8 164.71 202.26 167.96 200.28 170.58 197.03 171.05 194.42 169.06 193.96 165.81 195.93 163.21 199.17 162.74"/><polyline class="cls-112" points="213.81 162.74 216.44 164.71 216.9 167.96 214.91 170.58 211.67 171.05 209.06 169.06 208.6 165.81 210.56 163.21 213.81 162.74"/><polyline class="cls-113" points="228.45 162.74 231.08 164.71 231.52 167.96 229.55 170.58 226.3 171.05 223.68 169.06 223.24 165.81 225.2 163.21 228.45 162.74"/><polyline class="cls-114" points="243.09 162.74 245.69 164.71 246.16 167.96 244.19 170.58 240.94 171.05 238.31 169.06 237.85 165.81 239.84 163.21 243.09 162.74"/><polyline class="cls-115" points="257.73 162.74 260.33 164.71 260.79 167.96 258.83 170.58 255.58 171.05 252.95 169.06 252.49 165.81 254.48 163.21 257.73 162.74"/><polyline class="cls-116" points="155.28 177.08 157.89 179.05 158.35 182.29 156.38 184.92 153.14 185.38 150.51 183.4 150.05 180.15 152.03 177.54 155.28 177.08"/><polyline class="cls-117" points="169.92 177.08 172.53 179.05 172.99 182.29 171.02 184.92 167.77 185.38 165.15 183.4 164.68 180.15 166.67 177.54 169.92 177.08"/><polyline class="cls-118" points="184.54 177.08 187.16 179.05 187.63 182.29 185.66 184.92 182.41 185.38 179.78 183.4 179.32 180.15 181.29 177.54 184.54 177.08"/><polyline class="cls-119" points="199.17 177.08 201.8 179.05 202.26 182.29 200.28 184.92 197.03 185.38 194.42 183.4 193.96 180.15 195.93 177.54 199.17 177.08"/><polyline class="cls-120" points="213.81 177.08 216.44 179.05 216.9 182.29 214.91 184.92 211.67 185.38 209.06 183.4 208.6 180.15 210.56 177.54 213.81 177.08"/><polyline class="cls-121" points="228.45 177.08 231.08 179.05 231.52 182.29 229.55 184.92 226.3 185.38 223.68 183.4 223.24 180.15 225.2 177.54 228.45 177.08"/><polyline class="cls-122" points="243.09 177.08 245.69 179.05 246.16 182.29 244.19 184.92 240.94 185.38 238.31 183.4 237.85 180.15 239.84 177.54 243.09 177.08"/><polyline class="cls-123" points="257.73 177.08 260.33 179.05 260.79 182.29 258.83 184.92 255.58 185.38 252.95 183.4 252.49 180.15 254.48 177.54 257.73 177.08"/><polyline class="cls-124" points="155.28 191.42 157.89 193.38 158.35 196.63 156.38 199.26 153.14 199.72 150.51 197.75 150.05 194.5 152.03 191.88 155.28 191.42"/><polyline class="cls-125" points="171.78 187.57 174.41 189.53 174.85 192.78 172.88 195.41 169.64 195.87 167.01 193.88 166.57 190.64 168.53 188.03 171.78 187.57"/><polyline class="cls-126" points="184.54 191.42 187.16 193.38 187.63 196.63 185.66 199.26 182.41 199.72 179.78 197.75 179.32 194.5 181.29 191.88 184.54 191.42"/><polyline class="cls-127" points="199.17 191.42 201.8 193.38 202.26 196.63 200.28 199.26 197.03 199.72 194.42 197.75 193.96 194.5 195.93 191.88 199.17 191.42"/><polyline class="cls-128" points="213.81 191.42 216.44 193.38 216.9 196.63 214.91 199.26 211.67 199.72 209.06 197.75 208.6 194.5 210.56 191.88 213.81 191.42"/><polyline class="cls-129" points="228.45 191.42 231.08 193.38 231.52 196.63 229.55 199.26 226.3 199.72 223.68 197.75 223.24 194.5 225.2 191.88 228.45 191.42"/><polyline class="cls-130" points="243.09 191.42 245.69 193.38 246.16 196.63 244.19 199.26 240.94 199.72 238.31 197.75 237.85 194.5 239.84 191.88 243.09 191.42"/><polyline class="cls-131" points="257.73 191.42 260.33 193.38 260.79 196.63 258.83 199.26 255.58 199.72 252.95 197.75 252.49 194.5 254.48 191.88 257.73 191.42"/><polyline class="cls-132" points="145.5 185.62 148.1 187.59 148.56 190.84 146.6 193.47 143.35 193.92 140.72 191.96 140.26 188.71 142.25 186.08 145.5 185.62"/><polyline class="cls-133" points="172.15 199.86 174.77 201.82 175.23 205.07 173.25 207.7 170 208.16 167.37 206.18 166.93 202.93 168.9 200.32 172.15 199.86"/><polyline class="cls-134" points="184.54 205.76 187.16 207.72 187.63 210.97 185.66 213.6 182.41 214.06 179.78 212.09 179.32 208.84 181.29 206.22 184.54 205.76"/><polyline class="cls-135" points="199.17 205.76 201.8 207.72 202.26 210.97 200.28 213.6 197.03 214.06 194.42 212.09 193.96 208.84 195.93 206.22 199.17 205.76"/><polyline class="cls-136" points="213.81 205.76 216.44 207.72 216.9 210.97 214.91 213.6 211.67 214.06 209.06 212.09 208.6 208.84 210.56 206.22 213.81 205.76"/><polyline class="cls-137" points="228.45 205.76 231.08 207.72 231.52 210.97 229.55 213.6 226.3 214.06 223.68 212.09 223.24 208.84 225.2 206.22 228.45 205.76"/><polyline class="cls-138" points="243.09 205.76 245.69 207.72 246.16 210.97 244.19 213.6 240.94 214.06 238.31 212.09 237.85 208.84 239.84 206.22 243.09 205.76"/><polyline class="cls-139" points="257.73 205.76 260.33 207.72 260.79 210.97 258.83 213.6 255.58 214.06 252.95 212.09 252.49 208.84 254.48 206.22 257.73 205.76"/><polyline class="cls-140" points="184.54 220.09 187.16 222.08 187.63 225.33 185.66 227.93 182.41 228.39 179.78 226.43 179.32 223.18 181.29 220.55 184.54 220.09"/><polyline class="cls-141" points="199.17 220.09 201.8 222.08 202.26 225.33 200.28 227.93 197.03 228.39 194.42 226.43 193.96 223.18 195.93 220.55 199.17 220.09"/><polyline class="cls-142" points="213.81 220.09 216.44 222.08 216.9 225.33 214.91 227.93 211.67 228.39 209.06 226.43 208.6 223.18 210.56 220.55 213.81 220.09"/><polyline class="cls-143" points="228.45 220.09 231.08 222.08 231.52 225.33 229.55 227.93 226.3 228.39 223.68 226.43 223.24 223.18 225.2 220.55 228.45 220.09"/><polyline class="cls-144" points="243.09 220.09 245.69 222.08 246.16 225.33 244.19 227.93 240.94 228.39 238.31 226.43 237.85 223.18 239.84 220.55 243.09 220.09"/><polyline class="cls-145" points="257.73 220.09 260.33 222.08 260.79 225.33 258.83 227.93 255.58 228.39 252.95 226.43 252.49 223.18 254.48 220.55 257.73 220.09"/><polyline class="cls-146" points="184.54 234.43 187.16 236.41 187.63 239.66 185.66 242.27 182.41 242.73 179.78 240.77 179.32 237.52 181.29 234.89 184.54 234.43"/><polyline class="cls-147" points="199.17 234.43 201.8 236.41 202.26 239.66 200.28 242.27 197.03 242.73 194.42 240.77 193.96 237.52 195.93 234.89 199.17 234.43"/><polyline class="cls-148" points="213.81 234.43 216.44 236.41 216.9 239.66 214.91 242.27 211.67 242.73 209.06 240.77 208.6 237.52 210.56 234.89 213.81 234.43"/><polyline class="cls-149" points="228.45 234.43 231.08 236.41 231.52 239.66 229.55 242.27 226.3 242.73 223.68 240.77 223.24 237.52 225.2 234.89 228.45 234.43"/><polyline class="cls-150" points="243.09 234.43 245.69 236.41 246.16 239.66 244.19 242.27 240.94 242.73 238.31 240.77 237.85 237.52 239.84 234.89 243.09 234.43"/><polyline class="cls-151" points="257.73 234.43 260.33 236.41 260.79 239.66 258.83 242.27 255.58 242.73 252.95 240.77 252.49 237.52 254.48 234.89 257.73 234.43"/><polyline class="cls-152" points="184.54 248.77 187.16 250.75 187.63 254 185.66 256.61 182.41 257.07 179.78 255.1 179.32 251.85 181.29 249.23 184.54 248.77"/><polyline class="cls-153" points="199.17 248.77 201.8 250.75 202.26 254 200.28 256.61 197.03 257.07 194.42 255.1 193.96 251.85 195.93 249.23 199.17 248.77"/><polyline class="cls-154" points="213.81 248.77 216.44 250.75 216.9 254 214.91 256.61 211.67 257.07 209.06 255.1 208.6 251.85 210.56 249.23 213.81 248.77"/><polyline class="cls-155" points="228.45 248.77 231.08 250.75 231.52 254 229.55 256.61 226.3 257.07 223.68 255.1 223.24 251.85 225.2 249.23 228.45 248.77"/><polyline class="cls-156" points="243.09 248.77 245.69 250.75 246.16 254 244.19 256.61 240.94 257.07 238.31 255.1 237.85 251.85 239.84 249.23 243.09 248.77"/><polyline class="cls-157" points="257.73 248.77 260.33 250.75 260.79 254 258.83 256.61 255.58 257.07 252.95 255.1 252.49 251.85 254.48 249.23 257.73 248.77"/><polyline class="cls-158" points="184.54 251.1 187.16 253.09 187.63 256.34 185.66 258.96 182.41 259.4 179.78 257.44 179.32 254.19 181.29 251.56 184.54 251.1"/><polyline class="cls-159" points="199.17 251.1 201.8 253.09 202.26 256.34 200.28 258.96 197.03 259.4 194.42 257.44 193.96 254.19 195.93 251.56 199.17 251.1"/><polyline class="cls-160" points="213.81 251.1 216.44 253.09 216.9 256.34 214.91 258.96 211.67 259.4 209.06 257.44 208.6 254.19 210.56 251.56 213.81 251.1"/><polyline class="cls-161" points="228.45 251.1 231.08 253.09 231.52 256.34 229.55 258.96 226.3 259.4 223.68 257.44 223.24 254.19 225.2 251.56 228.45 251.1"/><polyline class="cls-162" points="243.09 251.1 245.69 253.09 246.16 256.34 244.19 258.96 240.94 259.4 238.31 257.44 237.85 254.19 239.84 251.56 243.09 251.1"/><polyline class="cls-163" points="257.73 251.1 260.33 253.09 260.79 256.34 258.83 258.96 255.58 259.4 252.95 257.44 252.49 254.19 254.48 251.56 257.73 251.1"/><polyline class="cls-164" points="309.4 269.76 302 269.76 302 19.76 309.4 19.76 309.4 269.76"/></svg>