<svg id="Layer_1" data-name="Layer 1" xmlns="http://www.w3.org/2000/svg" viewBox="0 0 840.13 284.9"><defs><style>.cls-1,.cls-6{fill:#ae480b;}.cls-1,.cls-2,.cls-3,.cls-4,.cls-5{fill-rule:evenodd;}.cls-2{fill:#e1662b;}.cls-3{fill:#f27e39;}.cls-4{fill:#f95;}.cls-5{fill:#fc9;}.cls-6{font-size:85.73px;font-family:ArialMT, Arial;}.cls-7{letter-spacing:0.09em;}.cls-8{letter-spacing:0.08em;}.cls-9{letter-spacing:0.08em;}</style></defs><polyline class="cls-1" points="96.73 19.68 99.36 21.64 99.82 24.89 97.85 27.52 94.6 27.98 91.98 25.99 91.52 22.74 93.48 20.12 96.73 19.68"/><polyline class="cls-1" points="111.37 19.68 114 21.64 114.45 24.89 112.47 27.52 109.22 27.98 106.62 25.99 106.16 22.74 108.12 20.12 111.37 19.68"/><polyline class="cls-1" points="126.01 19.68 128.63 21.64 129.09 24.89 127.11 27.52 123.86 27.98 121.25 25.99 120.79 22.74 122.76 20.12 126.01 19.68"/><polyline class="cls-1" points="140.64 19.68 143.27 21.64 143.71 24.89 141.75 27.52 138.5 27.98 135.87 25.99 135.43 22.74 137.4 20.12 140.64 19.68"/><polyline class="cls-1" points="155.28 19.68 157.89 21.64 158.35 24.89 156.38 27.52 153.14 27.98 150.51 25.99 150.05 22.74 152.03 20.12 155.28 19.68"/><polyline class="cls-1" points="169.92 19.68 172.53 21.64 172.99 24.89 171.02 27.52 167.77 27.98 165.15 25.99 164.69 22.74 166.67 20.12 169.92 19.68"/><polyline class="cls-1" points="184.54 19.68 187.16 21.64 187.63 24.89 185.66 27.52 182.41 27.98 179.78 25.99 179.32 22.74 181.29 20.12 184.54 19.68"/><polyline class="cls-1" points="199.17 19.68 201.8 21.64 202.26 24.89 200.28 27.52 197.03 27.98 194.42 25.99 193.96 22.74 195.93 20.12 199.17 19.68"/><polyline class="cls-2" points="213.81 19.68 216.44 21.64 216.9 24.89 214.91 27.52 211.67 27.98 209.06 25.99 208.6 22.74 210.56 20.12 213.81 19.68"/><polyline class="cls-3" points="228.45 19.68 231.08 21.64 231.52 24.89 229.55 27.52 226.3 27.98 223.68 25.99 223.24 22.74 225.2 20.12 228.45 19.68"/><polyline class="cls-4" points="243.09 19.68 245.69 21.64 246.16 24.89 244.19 27.52 240.94 27.98 238.31 25.99 237.85 22.74 239.84 20.12 243.09 19.68"/><polyline class="cls-5" points="257.73 19.68 260.33 21.64 260.79 24.89 258.83 27.52 255.58 27.98 252.95 25.99 252.49 22.74 254.48 20.12 257.73 19.68"/><text class="cls-6" transform="translate(339.65 85.57) scale(1.14 1)"><tspan class="cls-7">Residen</tspan><tspan x="367.33" y="0">t</tspan></text><text class="cls-6" transform="translate(342.34 180.02) scale(1.14 1)"><tspan class="cls-8">Architect</tspan><tspan x="394.44" y="0">s</tspan></text><text class="cls-6" transform="translate(342.34 269.07) scale(1.14 1)"><tspan class="cls-9">Limite</tspan><tspan x="270.85" y="0">d</tspan></text><polyline class="cls-1" points="118.43 180.31 100.48 201.06 100.48 261.28 133.26 261.28 133.26 201.06 140.94 201.06 140.94 268.94 92.8 268.94 92.8 198.22 116.66 170.6 138.86 182.78 135.17 189.51 118.43 180.31"/><polyline class="cls-1" points="55.3 135.96 47.2 140.55 40.14 144.56 40.14 54.77 85.38 24.21 89.51 30.32 47.52 58.7 47.52 131.88 55.6 127.29 99.82 156.73 95.73 162.86 55.3 135.96"/><path class="cls-1" d="M40.14,261.36V144.48l-32.74,18v98.88H40.14M45.58,133l0,8.46,2-1.1V268.76H0V158.11L45.58,133"/><polyline class="cls-1" points="88.81 103.87 80.59 99.9 75.16 92.56 73.73 83.56 76.64 74.92 83.24 68.6 86.32 73.95 81.09 79.59 79.99 87.19 83.38 94.07 90.09 97.82 88.81 103.87"/><polyline class="cls-1" points="102.31 101.75 99.22 96.37 104.45 90.76 105.55 83.16 102.16 76.26 95.47 72.53 96.73 66.47 104.95 70.45 110.41 77.77 111.83 86.79 108.9 95.43 102.31 101.75"/><polyline class="cls-1" points="110.94 33.89 113.57 35.86 114.03 39.1 112.07 41.73 108.82 42.19 106.19 40.21 105.73 36.96 107.72 34.35 110.94 33.89"/><polyline class="cls-1" points="111.37 34.09 114 36.06 114.45 39.3 112.47 41.93 109.22 42.39 106.62 40.41 106.16 37.16 108.12 34.55 111.37 34.09"/><polyline class="cls-1" points="126.01 34.09 128.63 36.06 129.09 39.3 127.11 41.93 123.86 42.39 121.25 40.41 120.79 37.16 122.76 34.55 126.01 34.09"/><polyline class="cls-1" points="140.64 34.09 143.27 36.06 143.71 39.3 141.75 41.93 138.5 42.39 135.87 40.41 135.43 37.16 137.4 34.55 140.64 34.09"/><polyline class="cls-1" points="155.28 34.09 157.89 36.06 158.35 39.3 156.38 41.93 153.14 42.39 150.51 40.41 150.05 37.16 152.03 34.55 155.28 34.09"/><polyline class="cls-1" points="169.92 34.09 172.53 36.06 172.99 39.3 171.02 41.93 167.77 42.39 165.15 40.41 164.69 37.16 166.67 34.55 169.92 34.09"/><polyline class="cls-1" points="184.54 34.09 187.16 36.06 187.63 39.3 185.66 41.93 182.41 42.39 179.78 40.41 179.32 37.16 181.29 34.55 184.54 34.09"/><polyline class="cls-1" points="199.17 34.09 201.8 36.06 202.26 39.3 200.28 41.93 197.03 42.39 194.42 40.41 193.96 37.16 195.93 34.55 199.17 34.09"/><polyline class="cls-2" points="213.81 34.09 216.44 36.06 216.9 39.3 214.91 41.93 211.67 42.39 209.06 40.41 208.6 37.16 210.56 34.55 213.81 34.09"/><polyline class="cls-3" points="228.45 34.09 231.08 36.06 231.52 39.3 229.55 41.93 226.3 42.39 223.68 40.41 223.24 37.16 225.2 34.55 228.45 34.09"/><polyline class="cls-4" points="243.09 34.09 245.69 36.06 246.16 39.3 244.19 41.93 240.94 42.39 238.31 40.41 237.85 37.16 239.84 34.55 243.09 34.09"/><polyline class="cls-5" points="257.73 34.09 260.33 36.06 260.79 39.3 258.83 41.93 255.58 42.39 252.95 40.41 252.49 37.16 254.48 34.55 257.73 34.09"/><polyline class="cls-1" points="129.53 48.03 132.16 49.99 132.62 53.24 130.64 55.87 127.39 56.33 124.76 54.36 124.32 51.12 126.29 48.49 129.53 48.03"/><polyline class="cls-1" points="144.17 48.03 146.78 49.99 147.24 53.24 145.28 55.87 142.03 56.33 139.4 54.36 138.94 51.12 140.93 48.49 144.17 48.03"/><polyline class="cls-1" points="155.28 48.03 157.89 49.99 158.35 53.24 156.38 55.87 153.14 56.33 150.51 54.36 150.05 51.12 152.03 48.49 155.28 48.03"/><polyline class="cls-1" points="169.92 48.03 172.53 49.99 172.99 53.24 171.02 55.87 167.77 56.33 165.15 54.36 164.69 51.12 166.67 48.49 169.92 48.03"/><polyline class="cls-1" points="184.54 48.03 187.16 49.99 187.63 53.24 185.66 55.87 182.41 56.33 179.78 54.36 179.32 51.12 181.29 48.49 184.54 48.03"/><polyline class="cls-1" points="199.17 48.03 201.8 49.99 202.26 53.24 200.28 55.87 197.03 56.33 194.42 54.36 193.96 51.12 195.93 48.49 199.17 48.03"/><polyline class="cls-2" points="213.81 48.03 216.44 49.99 216.9 53.24 214.91 55.87 211.67 56.33 209.06 54.36 208.6 51.12 210.56 48.49 213.81 48.03"/><polyline class="cls-3" points="228.45 48.03 231.08 49.99 231.52 53.24 229.55 55.87 226.3 56.33 223.68 54.36 223.24 51.12 225.2 48.49 228.45 48.03"/><polyline class="cls-4" points="243.09 48.03 245.69 49.99 246.16 53.24 244.19 55.87 240.94 56.33 238.31 54.36 237.85 51.12 239.84 48.49 243.09 48.03"/><polyline class="cls-5" points="257.73 48.03 260.33 49.99 260.79 53.24 258.83 55.87 255.58 56.33 252.95 54.36 252.49 51.12 254.48 48.49 257.73 48.03"/><polyline class="cls-1" points="139.88 62.37 142.51 64.35 142.97 67.6 140.98 70.2 137.74 70.67 135.13 68.7 134.67 65.45 136.63 62.83 139.88 62.37"/><polyline class="cls-1" points="155.28 62.37 157.89 64.35 158.35 67.6 156.38 70.2 153.14 70.67 150.51 68.7 150.05 65.45 152.03 62.83 155.28 62.37"/><polyline class="cls-1" points="169.92 62.37 172.53 64.35 172.99 67.6 171.02 70.2 167.77 70.67 165.15 68.7 164.69 65.45 166.67 62.83 169.92 62.37"/><polyline class="cls-1" points="184.54 62.37 187.16 64.35 187.63 67.6 185.66 70.2 182.41 70.67 179.78 68.7 179.32 65.45 181.29 62.83 184.54 62.37"/><polyline class="cls-1" points="199.17 62.37 201.8 64.35 202.26 67.6 200.28 70.2 197.03 70.67 194.42 68.7 193.96 65.45 195.93 62.83 199.17 62.37"/><polyline class="cls-2" points="213.81 62.37 216.44 64.35 216.9 67.6 214.91 70.2 211.67 70.67 209.06 68.7 208.6 65.45 210.56 62.83 213.81 62.37"/><polyline class="cls-3" points="228.45 62.37 231.08 64.35 231.52 67.6 229.55 70.2 226.3 70.67 223.68 68.7 223.24 65.45 225.2 62.83 228.45 62.37"/><polyline class="cls-4" points="243.09 62.37 245.69 64.35 246.16 67.6 244.19 70.2 240.94 70.67 238.31 68.7 237.85 65.45 239.84 62.83 243.09 62.37"/><polyline class="cls-5" points="257.73 62.37 260.33 64.35 260.79 67.6 258.83 70.2 255.58 70.67 252.95 68.7 252.49 65.45 254.48 62.83 257.73 62.37"/><polyline class="cls-1" points="139.88 76.7 142.51 78.69 142.97 81.94 140.98 84.54 137.74 85 135.13 83.04 134.67 79.79 136.63 77.16 139.88 76.7"/><polyline class="cls-1" points="155.28 76.7 157.89 78.69 158.35 81.94 156.38 84.54 153.14 85 150.51 83.04 150.05 79.79 152.03 77.16 155.28 76.7"/><polyline class="cls-1" points="169.92 76.7 172.53 78.69 172.99 81.94 171.02 84.54 167.77 85 165.15 83.04 164.69 79.79 166.67 77.16 169.92 76.7"/><polyline class="cls-1" points="184.54 76.7 187.16 78.69 187.63 81.94 185.66 84.54 182.41 85 179.78 83.04 179.32 79.79 181.29 77.16 184.54 76.7"/><polyline class="cls-1" points="199.17 76.7 201.8 78.69 202.26 81.94 200.28 84.54 197.03 85 194.42 83.04 193.96 79.79 195.93 77.16 199.17 76.7"/><polyline class="cls-2" points="213.81 76.7 216.44 78.69 216.9 81.94 214.91 84.54 211.67 85 209.06 83.04 208.6 79.79 210.56 77.16 213.81 76.7"/><polyline class="cls-3" points="228.45 76.7 231.08 78.69 231.52 81.94 229.55 84.54 226.3 85 223.68 83.04 223.24 79.79 225.2 77.16 228.45 76.7"/><polyline class="cls-4" points="243.09 76.7 245.69 78.69 246.16 81.94 244.19 84.54 240.94 85 238.31 83.04 237.85 79.79 239.84 77.16 243.09 76.7"/><polyline class="cls-5" points="257.73 76.7 260.33 78.69 260.79 81.94 258.83 84.54 255.58 85 252.95 83.04 252.49 79.79 254.48 77.16 257.73 76.7"/><polyline class="cls-1" points="139.88 91.04 142.51 93.02 142.97 96.27 140.98 98.88 137.74 99.34 135.13 97.38 134.67 94.13 136.63 91.5 139.88 91.04"/><polyline class="cls-1" points="155.28 91.04 157.89 93.02 158.35 96.27 156.38 98.88 153.14 99.34 150.51 97.38 150.05 94.13 152.03 91.5 155.28 91.04"/><polyline class="cls-1" points="169.92 91.04 172.53 93.02 172.99 96.27 171.02 98.88 167.77 99.34 165.15 97.38 164.69 94.13 166.67 91.5 169.92 91.04"/><polyline class="cls-1" points="184.54 91.04 187.16 93.02 187.63 96.27 185.66 98.88 182.41 99.34 179.78 97.38 179.32 94.13 181.29 91.5 184.54 91.04"/><polyline class="cls-1" points="199.17 91.04 201.8 93.02 202.26 96.27 200.28 98.88 197.03 99.34 194.42 97.38 193.96 94.13 195.93 91.5 199.17 91.04"/><polyline class="cls-2" points="213.81 91.04 216.44 93.02 216.9 96.27 214.91 98.88 211.67 99.34 209.06 97.38 208.6 94.13 210.56 91.5 213.81 91.04"/><polyline class="cls-3" points="228.45 91.04 231.08 93.02 231.52 96.27 229.55 98.88 226.3 99.34 223.68 97.38 223.24 94.13 225.2 91.5 228.45 91.04"/><polyline class="cls-4" points="243.09 91.04 245.69 93.02 246.16 96.27 244.19 98.88 240.94 99.34 238.31 97.38 237.85 94.13 239.84 91.5 243.09 91.04"/><polyline class="cls-5" points="257.73 91.04 260.33 93.02 260.79 96.27 258.83 98.88 255.58 99.34 252.95 97.38 252.49 94.13 254.48 91.5 257.73 91.04"/><polyline class="cls-1" points="139.88 105.38 142.51 107.36 142.97 110.61 140.98 113.24 137.74 113.68 135.13 111.71 134.67 108.46 136.63 105.84 139.88 105.38"/><polyline class="cls-1" points="155.28 105.38 157.89 107.36 158.35 110.61 156.38 113.24 153.14 113.68 150.51 111.71 150.05 108.46 152.03 105.84 155.28 105.38"/><polyline class="cls-1" points="169.92 105.38 172.53 107.36 172.99 110.61 171.02 113.24 167.77 113.68 165.15 111.71 164.69 108.46 166.67 105.84 169.92 105.38"/><polyline class="cls-1" points="184.54 105.38 187.16 107.36 187.63 110.61 185.66 113.24 182.41 113.68 179.78 111.71 179.32 108.46 181.29 105.84 184.54 105.38"/><polyline class="cls-1" points="199.17 105.38 201.8 107.36 202.26 110.61 200.28 113.24 197.03 113.68 194.42 111.71 193.96 108.46 195.93 105.84 199.17 105.38"/><polyline class="cls-2" points="213.81 105.38 216.44 107.36 216.9 110.61 214.91 113.24 211.67 113.68 209.06 111.71 208.6 108.46 210.56 105.84 213.81 105.38"/><polyline class="cls-3" points="228.45 105.38 231.08 107.36 231.52 110.61 229.55 113.24 226.3 113.68 223.68 111.71 223.24 108.46 225.2 105.84 228.45 105.38"/><polyline class="cls-4" points="243.09 105.38 245.69 107.36 246.16 110.61 244.19 113.24 240.94 113.68 238.31 111.71 237.85 108.46 239.84 105.84 243.09 105.38"/><polyline class="cls-5" points="257.73 105.38 260.33 107.36 260.79 110.61 258.83 113.24 255.58 113.68 252.95 111.71 252.49 108.46 254.48 105.84 257.73 105.38"/><polyline class="cls-1" points="139.88 119.73 142.51 121.7 142.97 124.95 140.98 127.57 137.74 128.01 135.13 126.05 134.67 122.8 136.63 120.17 139.88 119.73"/><polyline class="cls-1" points="155.28 119.73 157.89 121.7 158.35 124.95 156.38 127.57 153.14 128.01 150.51 126.05 150.05 122.8 152.03 120.17 155.28 119.73"/><polyline class="cls-1" points="169.92 119.73 172.53 121.7 172.99 124.95 171.02 127.57 167.77 128.01 165.15 126.05 164.69 122.8 166.67 120.17 169.92 119.73"/><polyline class="cls-1" points="184.54 119.73 187.16 121.7 187.63 124.95 185.66 127.57 182.41 128.01 179.78 126.05 179.32 122.8 181.29 120.17 184.54 119.73"/><polyline class="cls-1" points="199.17 119.73 201.8 121.7 202.26 124.95 200.28 127.57 197.03 128.01 194.42 126.05 193.96 122.8 195.93 120.17 199.17 119.73"/><polyline class="cls-2" points="213.81 119.73 216.44 121.7 216.9 124.95 214.91 127.57 211.67 128.01 209.06 126.05 208.6 122.8 210.56 120.17 213.81 119.73"/><polyline class="cls-3" points="228.45 119.73 231.08 121.7 231.52 124.95 229.55 127.57 226.3 128.01 223.68 126.05 223.24 122.8 225.2 120.17 228.45 119.73"/><polyline class="cls-4" points="243.09 119.73 245.69 121.7 246.16 124.95 244.19 127.57 240.94 128.01 238.31 126.05 237.85 122.8 239.84 120.17 243.09 119.73"/><polyline class="cls-5" points="257.73 119.73 260.33 121.7 260.79 124.95 258.83 127.57 255.58 128.01 252.95 126.05 252.49 122.8 254.48 120.17 257.73 119.73"/><polyline class="cls-1" points="139.88 134.07 142.51 136.03 142.97 139.28 140.98 141.91 137.74 142.37 135.13 140.39 134.67 137.14 136.63 134.53 139.88 134.07"/><polyline class="cls-1" points="155.28 134.07 157.89 136.03 158.35 139.28 156.38 141.91 153.14 142.37 150.51 140.39 150.05 137.14 152.03 134.53 155.28 134.07"/><polyline class="cls-1" points="169.92 134.07 172.53 136.03 172.99 139.28 171.02 141.91 167.77 142.37 165.15 140.39 164.69 137.14 166.67 134.53 169.92 134.07"/><polyline class="cls-1" points="184.54 134.07 187.16 136.03 187.63 139.28 185.66 141.91 182.41 142.37 179.78 140.39 179.32 137.14 181.29 134.53 184.54 134.07"/><polyline class="cls-1" points="199.17 134.07 201.8 136.03 202.26 139.28 200.28 141.91 197.03 142.37 194.42 140.39 193.96 137.14 195.93 134.53 199.17 134.07"/><polyline class="cls-2" points="213.81 134.07 216.44 136.03 216.9 139.28 214.91 141.91 211.67 142.37 209.06 140.39 208.6 137.14 210.56 134.53 213.81 134.07"/><polyline class="cls-3" points="228.45 134.07 231.08 136.03 231.52 139.28 229.55 141.91 226.3 142.37 223.68 140.39 223.24 137.14 225.2 134.53 228.45 134.07"/><polyline class="cls-4" points="243.09 134.07 245.69 136.03 246.16 139.28 244.19 141.91 240.94 142.37 238.31 140.39 237.85 137.14 239.84 134.53 243.09 134.07"/><polyline class="cls-5" points="257.73 134.07 260.33 136.03 260.79 139.28 258.83 141.91 255.58 142.37 252.95 140.39 252.49 137.14 254.48 134.53 257.73 134.07"/><polyline class="cls-1" points="139.88 148.41 142.51 150.37 142.97 153.62 140.98 156.25 137.74 156.71 135.13 154.72 134.67 151.47 136.63 148.87 139.88 148.41"/><polyline class="cls-1" points="155.28 148.41 157.89 150.37 158.35 153.62 156.38 156.25 153.14 156.71 150.51 154.72 150.05 151.47 152.03 148.87 155.28 148.41"/><polyline class="cls-1" points="169.92 148.41 172.53 150.37 172.99 153.62 171.02 156.25 167.77 156.71 165.15 154.72 164.69 151.47 166.67 148.87 169.92 148.41"/><polyline class="cls-1" points="184.54 148.41 187.16 150.37 187.63 153.62 185.66 156.25 182.41 156.71 179.78 154.72 179.32 151.47 181.29 148.87 184.54 148.41"/><polyline class="cls-1" points="199.17 148.41 201.8 150.37 202.26 153.62 200.28 156.25 197.03 156.71 194.42 154.72 193.96 151.47 195.93 148.87 199.17 148.41"/><polyline class="cls-2" points="213.81 148.41 216.44 150.37 216.9 153.62 214.91 156.25 211.67 156.71 209.06 154.72 208.6 151.47 210.56 148.87 213.81 148.41"/><polyline class="cls-3" points="228.45 148.41 231.08 150.37 231.52 153.62 229.55 156.25 226.3 156.71 223.68 154.72 223.24 151.47 225.2 148.87 228.45 148.41"/><polyline class="cls-4" points="243.09 148.41 245.69 150.37 246.16 153.62 244.19 156.25 240.94 156.71 238.31 154.72 237.85 151.47 239.84 148.87 243.09 148.41"/><polyline class="cls-5" points="257.73 148.41 260.33 150.37 260.79 153.62 258.83 156.25 255.58 156.71 252.95 154.72 252.49 151.47 254.48 148.87 257.73 148.41"/><polyline class="cls-1" points="139.88 162.74 142.51 164.71 142.97 167.96 140.98 170.58 137.74 171.04 135.13 169.06 134.67 165.81 136.63 163.21 139.88 162.74"/><polyline class="cls-1" points="155.28 162.74 157.89 164.71 158.35 167.96 156.38 170.58 153.14 171.04 150.51 169.06 150.05 165.81 152.03 163.21 155.28 162.74"/><polyline class="cls-1" points="169.92 162.74 172.53 164.71 172.99 167.96 171.02 170.58 167.77 171.04 165.15 169.06 164.69 165.81 166.67 163.21 169.92 162.74"/><polyline class="cls-1" points="184.54 162.74 187.16 164.71 187.63 167.96 185.66 170.58 182.41 171.04 179.78 169.06 179.32 165.81 181.29 163.21 184.54 162.74"/><polyline class="cls-1" points="199.17 162.74 201.8 164.71 202.26 167.96 200.28 170.58 197.03 171.04 194.42 169.06 193.96 165.81 195.93 163.21 199.17 162.74"/><polyline class="cls-2" points="213.81 162.74 216.44 164.71 216.9 167.96 214.91 170.58 211.67 171.04 209.06 169.06 208.6 165.81 210.56 163.21 213.81 162.74"/><polyline class="cls-3" points="228.45 162.74 231.08 164.71 231.52 167.96 229.55 170.58 226.3 171.04 223.68 169.06 223.24 165.81 225.2 163.21 228.45 162.74"/><polyline class="cls-4" points="243.09 162.74 245.69 164.71 246.16 167.96 244.19 170.58 240.94 171.04 238.31 169.06 237.85 165.81 239.84 163.21 243.09 162.74"/><polyline class="cls-5" points="257.73 162.74 260.33 164.71 260.79 167.96 258.83 170.58 255.58 171.04 252.95 169.06 252.49 165.81 254.48 163.21 257.73 162.74"/><polyline class="cls-1" points="155.28 177.08 157.89 179.05 158.35 182.29 156.38 184.92 153.14 185.38 150.51 183.4 150.05 180.15 152.03 177.54 155.28 177.08"/><polyline class="cls-1" points="169.92 177.08 172.53 179.05 172.99 182.29 171.02 184.92 167.77 185.38 165.15 183.4 164.69 180.15 166.67 177.54 169.92 177.08"/><polyline class="cls-1" points="184.54 177.08 187.16 179.05 187.63 182.29 185.66 184.92 182.41 185.38 179.78 183.4 179.32 180.15 181.29 177.54 184.54 177.08"/><polyline class="cls-1" points="199.17 177.08 201.8 179.05 202.26 182.29 200.28 184.92 197.03 185.38 194.42 183.4 193.96 180.15 195.93 177.54 199.17 177.08"/><polyline class="cls-2" points="213.81 177.08 216.44 179.05 216.9 182.29 214.91 184.92 211.67 185.38 209.06 183.4 208.6 180.15 210.56 177.54 213.81 177.08"/><polyline class="cls-3" points="228.45 177.08 231.08 179.05 231.52 182.29 229.55 184.92 226.3 185.38 223.68 183.4 223.24 180.15 225.2 177.54 228.45 177.08"/><polyline class="cls-4" points="243.09 177.08 245.69 179.05 246.16 182.29 244.19 184.92 240.94 185.38 238.31 183.4 237.85 180.15 239.84 177.54 243.09 177.08"/><polyline class="cls-5" points="257.73 177.08 260.33 179.05 260.79 182.29 258.83 184.92 255.58 185.38 252.95 183.4 252.49 180.15 254.48 177.54 257.73 177.08"/><polyline class="cls-1" points="155.28 191.42 157.89 193.38 158.35 196.63 156.38 199.26 153.14 199.72 150.51 197.75 150.05 194.5 152.03 191.88 155.28 191.42"/><polyline class="cls-1" points="171.78 187.57 174.41 189.53 174.85 192.78 172.88 195.41 169.64 195.87 167.01 193.88 166.57 190.64 168.53 188.03 171.78 187.57"/><polyline class="cls-1" points="184.54 191.42 187.16 193.38 187.63 196.63 185.66 199.26 182.41 199.72 179.78 197.75 179.32 194.5 181.29 191.88 184.54 191.42"/><polyline class="cls-1" points="199.17 191.42 201.8 193.38 202.26 196.63 200.28 199.26 197.03 199.72 194.42 197.75 193.96 194.5 195.93 191.88 199.17 191.42"/><polyline class="cls-2" points="213.81 191.42 216.44 193.38 216.9 196.63 214.91 199.26 211.67 199.72 209.06 197.75 208.6 194.5 210.56 191.88 213.81 191.42"/><polyline class="cls-3" points="228.45 191.42 231.08 193.38 231.52 196.63 229.55 199.26 226.3 199.72 223.68 197.75 223.24 194.5 225.2 191.88 228.45 191.42"/><polyline class="cls-4" points="243.09 191.42 245.69 193.38 246.16 196.63 244.19 199.26 240.94 199.72 238.31 197.75 237.85 194.5 239.84 191.88 243.09 191.42"/><polyline class="cls-5" points="257.73 191.42 260.33 193.38 260.79 196.63 258.83 199.26 255.58 199.72 252.95 197.75 252.49 194.5 254.48 191.88 257.73 191.42"/><polyline class="cls-1" points="145.5 185.62 148.1 187.59 148.56 190.84 146.6 193.46 143.35 193.92 140.72 191.96 140.26 188.71 142.25 186.08 145.5 185.62"/><polyline class="cls-1" points="172.15 199.86 174.77 201.82 175.23 205.07 173.25 207.7 170 208.16 167.37 206.18 166.93 202.93 168.9 200.32 172.15 199.86"/><polyline class="cls-1" points="184.54 205.75 187.16 207.72 187.63 210.97 185.66 213.6 182.41 214.06 179.78 212.09 179.32 208.84 181.29 206.22 184.54 205.75"/><polyline class="cls-1" points="199.17 205.75 201.8 207.72 202.26 210.97 200.28 213.6 197.03 214.06 194.42 212.09 193.96 208.84 195.93 206.22 199.17 205.75"/><polyline class="cls-2" points="213.81 205.75 216.44 207.72 216.9 210.97 214.91 213.6 211.67 214.06 209.06 212.09 208.6 208.84 210.56 206.22 213.81 205.75"/><polyline class="cls-3" points="228.45 205.75 231.08 207.72 231.52 210.97 229.55 213.6 226.3 214.06 223.68 212.09 223.24 208.84 225.2 206.22 228.45 205.75"/><polyline class="cls-4" points="243.09 205.75 245.69 207.72 246.16 210.97 244.19 213.6 240.94 214.06 238.31 212.09 237.85 208.84 239.84 206.22 243.09 205.75"/><polyline class="cls-5" points="257.73 205.75 260.33 207.72 260.79 210.97 258.83 213.6 255.58 214.06 252.95 212.09 252.49 208.84 254.48 206.22 257.73 205.75"/><polyline class="cls-1" points="184.54 220.09 187.16 222.08 187.63 225.33 185.66 227.93 182.41 228.39 179.78 226.43 179.32 223.18 181.29 220.55 184.54 220.09"/><polyline class="cls-1" points="199.17 220.09 201.8 222.08 202.26 225.33 200.28 227.93 197.03 228.39 194.42 226.43 193.96 223.18 195.93 220.55 199.17 220.09"/><polyline class="cls-2" points="213.81 220.09 216.44 222.08 216.9 225.33 214.91 227.93 211.67 228.39 209.06 226.43 208.6 223.18 210.56 220.55 213.81 220.09"/><polyline class="cls-3" points="228.45 220.09 231.08 222.08 231.52 225.33 229.55 227.93 226.3 228.39 223.68 226.43 223.24 223.18 225.2 220.55 228.45 220.09"/><polyline class="cls-4" points="243.09 220.09 245.69 222.08 246.16 225.33 244.19 227.93 240.94 228.39 238.31 226.43 237.85 223.18 239.84 220.55 243.09 220.09"/><polyline class="cls-5" points="257.73 220.09 260.33 222.08 260.79 225.33 258.83 227.93 255.58 228.39 252.95 226.43 252.49 223.18 254.48 220.55 257.73 220.09"/><polyline class="cls-1" points="184.54 234.43 187.16 236.41 187.63 239.66 185.66 242.27 182.41 242.73 179.78 240.77 179.32 237.52 181.29 234.89 184.54 234.43"/><polyline class="cls-1" points="199.17 234.43 201.8 236.41 202.26 239.66 200.28 242.27 197.03 242.73 194.42 240.77 193.96 237.52 195.93 234.89 199.17 234.43"/><polyline class="cls-2" points="213.81 234.43 216.44 236.41 216.9 239.66 214.91 242.27 211.67 242.73 209.06 240.77 208.6 237.52 210.56 234.89 213.81 234.43"/><polyline class="cls-3" points="228.45 234.43 231.08 236.41 231.52 239.66 229.55 242.27 226.3 242.73 223.68 240.77 223.24 237.52 225.2 234.89 228.45 234.43"/><polyline class="cls-4" points="243.09 234.43 245.69 236.41 246.16 239.66 244.19 242.27 240.94 242.73 238.31 240.77 237.85 237.52 239.84 234.89 243.09 234.43"/><polyline class="cls-5" points="257.73 234.43 260.33 236.41 260.79 239.66 258.83 242.27 255.58 242.73 252.95 240.77 252.49 237.52 254.48 234.89 257.73 234.43"/><polyline class="cls-1" points="184.54 248.76 187.16 250.75 187.63 254 185.66 256.61 182.41 257.07 179.78 255.1 179.32 251.85 181.29 249.23 184.54 248.76"/><polyline class="cls-1" points="199.17 248.76 201.8 250.75 202.26 254 200.28 256.61 197.03 257.07 194.42 255.1 193.96 251.85 195.93 249.23 199.17 248.76"/><polyline class="cls-2" points="213.81 248.76 216.44 250.75 216.9 254 214.91 256.61 211.67 257.07 209.06 255.1 208.6 251.85 210.56 249.23 213.81 248.76"/><polyline class="cls-3" points="228.45 248.76 231.08 250.75 231.52 254 229.55 256.61 226.3 257.07 223.68 255.1 223.24 251.85 225.2 249.23 228.45 248.76"/><polyline class="cls-4" points="243.09 248.76 245.69 250.75 246.16 254 244.19 256.61 240.94 257.07 238.31 255.1 237.85 251.85 239.84 249.23 243.09 248.76"/><polyline class="cls-5" points="257.73 248.76 260.33 250.75 260.79 254 258.83 256.61 255.58 257.07 252.95 255.1 252.49 251.85 254.48 249.23 257.73 248.76"/><polyline class="cls-1" points="184.54 251.1 187.16 253.09 187.63 256.34 185.66 258.96 182.41 259.4 179.78 257.44 179.32 254.19 181.29 251.56 184.54 251.1"/><polyline class="cls-1" points="199.17 251.1 201.8 253.09 202.26 256.34 200.28 258.96 197.03 259.4 194.42 257.44 193.96 254.19 195.93 251.56 199.17 251.1"/><polyline class="cls-2" points="213.81 251.1 216.44 253.09 216.9 256.34 214.91 258.96 211.67 259.4 209.06 257.44 208.6 254.19 210.56 251.56 213.81 251.1"/><polyline class="cls-3" points="228.45 251.1 231.08 253.09 231.52 256.34 229.55 258.96 226.3 259.4 223.68 257.44 223.24 254.19 225.2 251.56 228.45 251.1"/><polyline class="cls-4" points="243.09 251.1 245.69 253.09 246.16 256.34 244.19 258.96 240.94 259.4 238.31 257.44 237.85 254.19 239.84 251.56 243.09 251.1"/><polyline class="cls-5" points="257.73 251.1 260.33 253.09 260.79 256.34 258.83 258.96 255.58 259.4 252.95 257.44 252.49 254.19 254.48 251.56 257.73 251.1"/><polyline class="cls-1" points="309.4 269.76 302 269.76 302 19.76 309.4 19.76 309.4 269.76"/></svg>