<svg id="Layer_1" data-name="Layer 1" xmlns="http://www.w3.org/2000/svg" xmlns:xlink="http://www.w3.org/1999/xlink" viewBox="0 0 840.13 284.9"><defs><style>.cls-1{fill:url(#linear-gradient);}.cls-2{font-size:85.73px;font-family:ArialMT, Arial;}.cls-2,.cls-32{fill:#fff;}.cls-3{letter-spacing:0.09em;}.cls-4{letter-spacing:0.08em;}.cls-5{letter-spacing:0.08em;}.cls-6{fill:url(#linear-gradient-13);}.cls-7{fill:url(#linear-gradient-14);}.cls-8{fill:url(#linear-gradient-15);}.cls-9{fill:url(#linear-gradient-16);}.cls-10{fill:url(#linear-gradient-17);}.cls-11{fill:url(#linear-gradient-18);}.cls-12{fill:url(#linear-gradient-19);}.cls-13{fill:url(#linear-gradient-30);}.cls-14{fill:url(#linear-gradient-40);}.cls-15{fill:url(#linear-gradient-49);}.cls-16{fill:url(#linear-gradient-58);}.cls-17{fill:url(#linear-gradient-67);}.cls-18{fill:url(#linear-gradient-76);}.cls-19{fill:url(#linear-gradient-85);}.cls-20{fill:url(#linear-gradient-94);}.cls-21{fill:url(#linear-gradient-103);}.cls-22{fill:url(#linear-gradient-112);}.cls-23{fill:url(#linear-gradient-120);}.cls-24{fill:url(#linear-gradient-121);}.cls-25{fill:url(#linear-gradient-128);}.cls-26{fill:url(#linear-gradient-129);}.cls-27{fill:url(#linear-gradient-130);}.cls-28{fill:url(#linear-gradient-136);}.cls-29{fill:url(#linear-gradient-142);}.cls-30{fill:url(#linear-gradient-148);}.cls-31{fill:url(#linear-gradient-154);}</style><linearGradient id="linear-gradient" x1="-30.63" y1="22.74" x2="263.26" y2="22.74" gradientUnits="userSpaceOnUse"><stop offset="0.42" stop-color="#fff"/><stop offset="0.52" stop-color="#fff" stop-opacity="0.99"/><stop offset="0.6" stop-color="#fff" stop-opacity="0.95"/><stop offset="0.66" stop-color="#fff" stop-opacity="0.88"/><stop offset="0.73" stop-color="#fff" stop-opacity="0.79"/><stop offset="0.79" stop-color="#fff" stop-opacity="0.67"/><stop offset="0.85" stop-color="#fff" stop-opacity="0.53"/><stop offset="0.91" stop-color="#fff" stop-opacity="0.35"/><stop offset="0.96" stop-color="#fff" stop-opacity="0.16"/><stop offset="1" stop-color="#fff" stop-opacity="0"/></linearGradient><linearGradient id="linear-gradient-13" x1="-30.63" y1="218.69" x2="263.26" y2="218.69" xlink:href="#linear-gradient"/><linearGradient id="linear-gradient-14" x1="-30.63" y1="92.45" x2="263.26" y2="92.45" xlink:href="#linear-gradient"/><linearGradient id="linear-gradient-15" x1="-30.63" y1="199.81" x2="263.26" y2="199.81" xlink:href="#linear-gradient"/><linearGradient id="linear-gradient-16" x1="-30.63" y1="85.15" x2="263.26" y2="85.15" xlink:href="#linear-gradient"/><linearGradient id="linear-gradient-17" x1="-30.63" y1="83.03" x2="263.26" y2="83.03" xlink:href="#linear-gradient"/><linearGradient id="linear-gradient-18" x1="-30.63" y1="36.96" x2="263.26" y2="36.96" xlink:href="#linear-gradient"/><linearGradient id="linear-gradient-19" x1="-30.63" y1="37.16" x2="263.26" y2="37.16" xlink:href="#linear-gradient"/><linearGradient id="linear-gradient-30" x1="-30.63" y1="51.1" x2="263.26" y2="51.1" xlink:href="#linear-gradient"/><linearGradient id="linear-gradient-40" x1="-30.63" y1="65.43" x2="263.26" y2="65.43" xlink:href="#linear-gradient"/><linearGradient id="linear-gradient-49" x1="-30.63" y1="79.77" x2="263.26" y2="79.77" xlink:href="#linear-gradient"/><linearGradient id="linear-gradient-58" x1="-30.63" y1="94.11" x2="263.26" y2="94.11" xlink:href="#linear-gradient"/><linearGradient id="linear-gradient-67" x1="-30.63" y1="108.44" x2="263.26" y2="108.44" xlink:href="#linear-gradient"/><linearGradient id="linear-gradient-76" x1="-30.63" y1="122.79" x2="263.26" y2="122.79" xlink:href="#linear-gradient"/><linearGradient id="linear-gradient-85" x1="-30.63" y1="137.14" x2="263.26" y2="137.14" xlink:href="#linear-gradient"/><linearGradient id="linear-gradient-94" x1="-30.63" y1="151.48" x2="263.26" y2="151.48" xlink:href="#linear-gradient"/><linearGradient id="linear-gradient-103" x1="-30.63" y1="165.81" x2="263.26" y2="165.81" xlink:href="#linear-gradient"/><linearGradient id="linear-gradient-112" x1="-30.63" y1="180.15" x2="263.26" y2="180.15" xlink:href="#linear-gradient"/><linearGradient id="linear-gradient-120" x1="-30.63" y1="194.49" x2="263.26" y2="194.49" xlink:href="#linear-gradient"/><linearGradient id="linear-gradient-121" x1="-30.63" y1="190.64" x2="263.26" y2="190.64" xlink:href="#linear-gradient"/><linearGradient id="linear-gradient-128" x1="-30.63" y1="188.69" x2="263.26" y2="188.69" xlink:href="#linear-gradient"/><linearGradient id="linear-gradient-129" x1="-30.63" y1="202.93" x2="263.26" y2="202.93" xlink:href="#linear-gradient"/><linearGradient id="linear-gradient-130" x1="-30.63" y1="208.82" x2="263.26" y2="208.82" xlink:href="#linear-gradient"/><linearGradient id="linear-gradient-136" x1="-30.63" y1="223.16" x2="263.26" y2="223.16" xlink:href="#linear-gradient"/><linearGradient id="linear-gradient-142" x1="-30.63" y1="237.5" x2="263.26" y2="237.5" xlink:href="#linear-gradient"/><linearGradient id="linear-gradient-148" x1="-30.63" y1="251.83" x2="263.26" y2="251.83" xlink:href="#linear-gradient"/><linearGradient id="linear-gradient-154" x1="-30.63" y1="254.17" x2="263.26" y2="254.17" xlink:href="#linear-gradient"/></defs><polyline class="cls-1" points="97.94 18.59 100.57 20.56 101.03 23.81 99.06 26.43 95.82 26.89 93.19 24.91 92.73 21.66 94.69 19.03 97.94 18.59"/><polyline class="cls-1" points="112.58 18.59 115.21 20.56 115.67 23.81 113.68 26.43 110.43 26.89 107.83 24.91 107.37 21.66 109.33 19.03 112.58 18.59"/><polyline class="cls-1" points="127.22 18.59 129.85 20.56 130.31 23.81 128.32 26.43 125.07 26.89 122.46 24.91 122 21.66 123.97 19.03 127.22 18.59"/><polyline class="cls-1" points="141.86 18.59 144.48 20.56 144.92 23.81 142.96 26.43 139.71 26.89 137.08 24.91 136.64 21.66 138.61 19.03 141.86 18.59"/><polyline class="cls-1" points="156.49 18.59 159.1 20.56 159.56 23.81 157.6 26.43 154.35 26.89 151.72 24.91 151.26 21.66 153.25 19.03 156.49 18.59"/><polyline class="cls-1" points="171.13 18.59 173.74 20.56 174.2 23.81 172.24 26.43 168.99 26.89 166.36 24.91 165.9 21.66 167.88 19.03 171.13 18.59"/><polyline class="cls-1" points="185.75 18.59 188.38 20.56 188.84 23.81 186.87 26.43 183.62 26.89 181 24.91 180.53 21.66 182.5 19.03 185.75 18.59"/><polyline class="cls-1" points="200.39 18.59 203.01 20.56 203.48 23.81 201.49 26.43 198.24 26.89 195.63 24.91 195.17 21.66 197.14 19.03 200.39 18.59"/><polyline class="cls-1" points="215.02 18.59 217.65 20.56 218.11 23.81 216.13 26.43 212.88 26.89 210.27 24.91 209.81 21.66 211.78 19.03 215.02 18.59"/><polyline class="cls-1" points="229.66 18.59 232.29 20.56 232.73 23.81 230.76 26.43 227.52 26.89 224.89 24.91 224.45 21.66 226.41 19.03 229.66 18.59"/><polyline class="cls-1" points="244.3 18.59 246.91 20.56 247.37 23.81 245.4 26.43 242.15 26.89 239.53 24.91 239.07 21.66 241.05 19.03 244.3 18.59"/><polyline class="cls-1" points="258.94 18.59 261.54 20.56 262 23.81 260.04 26.43 256.79 26.89 254.16 24.91 253.7 21.66 255.69 19.03 258.94 18.59"/><text class="cls-2" transform="translate(340.86 84.48) scale(1.14 1)"><tspan class="cls-3">Residen</tspan><tspan x="367.33" y="0">t</tspan></text><text class="cls-2" transform="translate(343.55 178.94) scale(1.14 1)"><tspan class="cls-4">Architect</tspan><tspan x="394.44" y="0">s</tspan></text><text class="cls-2" transform="translate(343.55 267.98) scale(1.14 1)"><tspan class="cls-5">Limite</tspan><tspan x="270.85" y="0">d</tspan></text><polyline class="cls-6" points="119.64 179.23 101.69 199.98 101.69 260.19 134.48 260.19 134.48 199.98 142.16 199.98 142.16 267.85 94.01 267.85 94.01 197.13 117.88 169.52 140.07 181.69 136.38 188.43 119.64 179.23"/><polyline class="cls-7" points="56.52 134.87 48.41 139.46 41.36 143.47 41.36 53.68 86.59 23.12 90.72 29.24 48.73 57.61 48.73 130.8 56.82 126.21 101.03 155.65 96.94 161.78 56.52 134.87"/><path class="cls-8" d="M41.36,260.27V143.39l-32.75,18v98.87H41.36m5.43-128.33,0,8.47,2-1.11V267.68H1.21V157l45.58-25.09"/><polyline class="cls-9" points="90.02 102.79 81.8 98.82 76.37 91.48 74.94 82.48 77.85 73.83 84.45 67.52 87.54 72.87 82.3 78.51 81.2 86.11 84.59 92.98 91.31 96.73 90.02 102.79"/><polyline class="cls-10" points="103.52 100.66 100.43 95.29 105.66 89.68 106.77 82.08 103.38 75.18 96.68 71.45 97.94 65.39 106.16 69.36 111.62 76.68 113.04 85.7 110.11 94.35 103.52 100.66"/><polyline class="cls-11" points="112.16 32.81 114.78 34.77 115.25 38.02 113.28 40.65 110.03 41.11 107.41 39.13 106.94 35.88 108.93 33.27 112.16 32.81"/><polyline class="cls-12" points="112.58 33.01 115.21 34.97 115.67 38.22 113.68 40.85 110.43 41.31 107.83 39.33 107.37 36.08 109.33 33.47 112.58 33.01"/><polyline class="cls-12" points="127.22 33.01 129.85 34.97 130.31 38.22 128.32 40.85 125.07 41.31 122.46 39.33 122 36.08 123.97 33.47 127.22 33.01"/><polyline class="cls-12" points="141.86 33.01 144.48 34.97 144.92 38.22 142.96 40.85 139.71 41.31 137.08 39.33 136.64 36.08 138.61 33.47 141.86 33.01"/><polyline class="cls-12" points="156.49 33.01 159.1 34.97 159.56 38.22 157.6 40.85 154.35 41.31 151.72 39.33 151.26 36.08 153.25 33.47 156.49 33.01"/><polyline class="cls-12" points="171.13 33.01 173.74 34.97 174.2 38.22 172.24 40.85 168.99 41.31 166.36 39.33 165.9 36.08 167.88 33.47 171.13 33.01"/><polyline class="cls-12" points="185.75 33.01 188.38 34.97 188.84 38.22 186.87 40.85 183.62 41.31 181 39.33 180.53 36.08 182.5 33.47 185.75 33.01"/><polyline class="cls-12" points="200.39 33.01 203.01 34.97 203.48 38.22 201.49 40.85 198.24 41.31 195.63 39.33 195.17 36.08 197.14 33.47 200.39 33.01"/><polyline class="cls-12" points="215.02 33.01 217.65 34.97 218.11 38.22 216.13 40.85 212.88 41.31 210.27 39.33 209.81 36.08 211.78 33.47 215.02 33.01"/><polyline class="cls-12" points="229.66 33.01 232.29 34.97 232.73 38.22 230.76 40.85 227.52 41.31 224.89 39.33 224.45 36.08 226.41 33.47 229.66 33.01"/><polyline class="cls-12" points="244.3 33.01 246.91 34.97 247.37 38.22 245.4 40.85 242.15 41.31 239.53 39.33 239.07 36.08 241.05 33.47 244.3 33.01"/><polyline class="cls-12" points="258.94 33.01 261.54 34.97 262 38.22 260.04 40.85 256.79 41.31 254.16 39.33 253.7 36.08 255.69 33.47 258.94 33.01"/><polyline class="cls-13" points="130.75 46.95 133.38 48.91 133.83 52.16 131.85 54.78 128.6 55.25 125.97 53.28 125.53 50.03 127.5 47.41 130.75 46.95"/><polyline class="cls-13" points="145.38 46.95 147.99 48.91 148.45 52.16 146.49 54.78 143.24 55.25 140.61 53.28 140.15 50.03 142.14 47.41 145.38 46.95"/><polyline class="cls-13" points="156.49 46.95 159.1 48.91 159.56 52.16 157.6 54.78 154.35 55.25 151.72 53.28 151.26 50.03 153.25 47.41 156.49 46.95"/><polyline class="cls-13" points="171.13 46.95 173.74 48.91 174.2 52.16 172.24 54.78 168.99 55.25 166.36 53.28 165.9 50.03 167.88 47.41 171.13 46.95"/><polyline class="cls-13" points="185.75 46.95 188.38 48.91 188.84 52.16 186.87 54.78 183.62 55.25 181 53.28 180.53 50.03 182.5 47.41 185.75 46.95"/><polyline class="cls-13" points="200.39 46.95 203.01 48.91 203.48 52.16 201.49 54.78 198.24 55.25 195.63 53.28 195.17 50.03 197.14 47.41 200.39 46.95"/><polyline class="cls-13" points="215.02 46.95 217.65 48.91 218.11 52.16 216.13 54.78 212.88 55.25 210.27 53.28 209.81 50.03 211.78 47.41 215.02 46.95"/><polyline class="cls-13" points="229.66 46.95 232.29 48.91 232.73 52.16 230.76 54.78 227.52 55.25 224.89 53.28 224.45 50.03 226.41 47.41 229.66 46.95"/><polyline class="cls-13" points="244.3 46.95 246.91 48.91 247.37 52.16 245.4 54.78 242.15 55.25 239.53 53.28 239.07 50.03 241.05 47.41 244.3 46.95"/><polyline class="cls-13" points="258.94 46.95 261.54 48.91 262 52.16 260.04 54.78 256.79 55.25 254.16 53.28 253.7 50.03 255.69 47.41 258.94 46.95"/><polyline class="cls-14" points="141.09 61.28 143.72 63.27 144.18 66.52 142.2 69.12 138.95 69.58 136.34 67.62 135.88 64.37 137.84 61.74 141.09 61.28"/><polyline class="cls-14" points="156.49 61.28 159.1 63.27 159.56 66.52 157.6 69.12 154.35 69.58 151.72 67.62 151.26 64.37 153.25 61.74 156.49 61.28"/><polyline class="cls-14" points="171.13 61.28 173.74 63.27 174.2 66.52 172.24 69.12 168.99 69.58 166.36 67.62 165.9 64.37 167.88 61.74 171.13 61.28"/><polyline class="cls-14" points="185.75 61.28 188.38 63.27 188.84 66.52 186.87 69.12 183.62 69.58 181 67.62 180.53 64.37 182.5 61.74 185.75 61.28"/><polyline class="cls-14" points="200.39 61.28 203.01 63.27 203.48 66.52 201.49 69.12 198.24 69.58 195.63 67.62 195.17 64.37 197.14 61.74 200.39 61.28"/><polyline class="cls-14" points="215.02 61.28 217.65 63.27 218.11 66.52 216.13 69.12 212.88 69.58 210.27 67.62 209.81 64.37 211.78 61.74 215.02 61.28"/><polyline class="cls-14" points="229.66 61.28 232.29 63.27 232.73 66.52 230.76 69.12 227.52 69.58 224.89 67.62 224.45 64.37 226.41 61.74 229.66 61.28"/><polyline class="cls-14" points="244.3 61.28 246.91 63.27 247.37 66.52 245.4 69.12 242.15 69.58 239.53 67.62 239.07 64.37 241.05 61.74 244.3 61.28"/><polyline class="cls-14" points="258.94 61.28 261.54 63.27 262 66.52 260.04 69.12 256.79 69.58 254.16 67.62 253.7 64.37 255.69 61.74 258.94 61.28"/><polyline class="cls-15" points="141.09 75.62 143.72 77.6 144.18 80.85 142.2 83.46 138.95 83.92 136.34 81.96 135.88 78.71 137.84 76.08 141.09 75.62"/><polyline class="cls-15" points="156.49 75.62 159.1 77.6 159.56 80.85 157.6 83.46 154.35 83.92 151.72 81.96 151.26 78.71 153.25 76.08 156.49 75.62"/><polyline class="cls-15" points="171.13 75.62 173.74 77.6 174.2 80.85 172.24 83.46 168.99 83.92 166.36 81.96 165.9 78.71 167.88 76.08 171.13 75.62"/><polyline class="cls-15" points="185.75 75.62 188.38 77.6 188.84 80.85 186.87 83.46 183.62 83.92 181 81.96 180.53 78.71 182.5 76.08 185.75 75.62"/><polyline class="cls-15" points="200.39 75.62 203.01 77.6 203.48 80.85 201.49 83.46 198.24 83.92 195.63 81.96 195.17 78.71 197.14 76.08 200.39 75.62"/><polyline class="cls-15" points="215.02 75.62 217.65 77.6 218.11 80.85 216.13 83.46 212.88 83.92 210.27 81.96 209.81 78.71 211.78 76.08 215.02 75.62"/><polyline class="cls-15" points="229.66 75.62 232.29 77.6 232.73 80.85 230.76 83.46 227.52 83.92 224.89 81.96 224.45 78.71 226.41 76.08 229.66 75.62"/><polyline class="cls-15" points="244.3 75.62 246.91 77.6 247.37 80.85 245.4 83.46 242.15 83.92 239.53 81.96 239.07 78.71 241.05 76.08 244.3 75.62"/><polyline class="cls-15" points="258.94 75.62 261.54 77.6 262 80.85 260.04 83.46 256.79 83.92 254.16 81.96 253.7 78.71 255.69 76.08 258.94 75.62"/><polyline class="cls-16" points="141.09 89.96 143.72 91.94 144.18 95.19 142.2 97.8 138.95 98.26 136.34 96.29 135.88 93.04 137.84 90.42 141.09 89.96"/><polyline class="cls-16" points="156.49 89.96 159.1 91.94 159.56 95.19 157.6 97.8 154.35 98.26 151.72 96.29 151.26 93.04 153.25 90.42 156.49 89.96"/><polyline class="cls-16" points="171.13 89.96 173.74 91.94 174.2 95.19 172.24 97.8 168.99 98.26 166.36 96.29 165.9 93.04 167.88 90.42 171.13 89.96"/><polyline class="cls-16" points="185.75 89.96 188.38 91.94 188.84 95.19 186.87 97.8 183.62 98.26 181 96.29 180.53 93.04 182.5 90.42 185.75 89.96"/><polyline class="cls-16" points="200.39 89.96 203.01 91.94 203.48 95.19 201.49 97.8 198.24 98.26 195.63 96.29 195.17 93.04 197.14 90.42 200.39 89.96"/><polyline class="cls-16" points="215.02 89.96 217.65 91.94 218.11 95.19 216.13 97.8 212.88 98.26 210.27 96.29 209.81 93.04 211.78 90.42 215.02 89.96"/><polyline class="cls-16" points="229.66 89.96 232.29 91.94 232.73 95.19 230.76 97.8 227.52 98.26 224.89 96.29 224.45 93.04 226.41 90.42 229.66 89.96"/><polyline class="cls-16" points="244.3 89.96 246.91 91.94 247.37 95.19 245.4 97.8 242.15 98.26 239.53 96.29 239.07 93.04 241.05 90.42 244.3 89.96"/><polyline class="cls-16" points="258.94 89.96 261.54 91.94 262 95.19 260.04 97.8 256.79 98.26 254.16 96.29 253.7 93.04 255.69 90.42 258.94 89.96"/><polyline class="cls-17" points="141.09 104.29 143.72 106.28 144.18 109.53 142.2 112.15 138.95 112.59 136.34 110.63 135.88 107.38 137.84 104.75 141.09 104.29"/><polyline class="cls-17" points="156.49 104.29 159.1 106.28 159.56 109.53 157.6 112.15 154.35 112.59 151.72 110.63 151.26 107.38 153.25 104.75 156.49 104.29"/><polyline class="cls-17" points="171.13 104.29 173.74 106.28 174.2 109.53 172.24 112.15 168.99 112.59 166.36 110.63 165.9 107.38 167.88 104.75 171.13 104.29"/><polyline class="cls-17" points="185.75 104.29 188.38 106.28 188.84 109.53 186.87 112.15 183.62 112.59 181 110.63 180.53 107.38 182.5 104.75 185.75 104.29"/><polyline class="cls-17" points="200.39 104.29 203.01 106.28 203.48 109.53 201.49 112.15 198.24 112.59 195.63 110.63 195.17 107.38 197.14 104.75 200.39 104.29"/><polyline class="cls-17" points="215.02 104.29 217.65 106.28 218.11 109.53 216.13 112.15 212.88 112.59 210.27 110.63 209.81 107.38 211.78 104.75 215.02 104.29"/><polyline class="cls-17" points="229.66 104.29 232.29 106.28 232.73 109.53 230.76 112.15 227.52 112.59 224.89 110.63 224.45 107.38 226.41 104.75 229.66 104.29"/><polyline class="cls-17" points="244.3 104.29 246.91 106.28 247.37 109.53 245.4 112.15 242.15 112.59 239.53 110.63 239.07 107.38 241.05 104.75 244.3 104.29"/><polyline class="cls-17" points="258.94 104.29 261.54 106.28 262 109.53 260.04 112.15 256.79 112.59 254.16 110.63 253.7 107.38 255.69 104.75 258.94 104.29"/><polyline class="cls-18" points="141.09 118.65 143.72 120.61 144.18 123.86 142.2 126.49 138.95 126.93 136.34 124.97 135.88 121.72 137.84 119.09 141.09 118.65"/><polyline class="cls-18" points="156.49 118.65 159.1 120.61 159.56 123.86 157.6 126.49 154.35 126.93 151.72 124.97 151.26 121.72 153.25 119.09 156.49 118.65"/><polyline class="cls-18" points="171.13 118.65 173.74 120.61 174.2 123.86 172.24 126.49 168.99 126.93 166.36 124.97 165.9 121.72 167.88 119.09 171.13 118.65"/><polyline class="cls-18" points="185.75 118.65 188.38 120.61 188.84 123.86 186.87 126.49 183.62 126.93 181 124.97 180.53 121.72 182.5 119.09 185.75 118.65"/><polyline class="cls-18" points="200.39 118.65 203.01 120.61 203.48 123.86 201.49 126.49 198.24 126.93 195.63 124.97 195.17 121.72 197.14 119.09 200.39 118.65"/><polyline class="cls-18" points="215.02 118.65 217.65 120.61 218.11 123.86 216.13 126.49 212.88 126.93 210.27 124.97 209.81 121.72 211.78 119.09 215.02 118.65"/><polyline class="cls-18" points="229.66 118.65 232.29 120.61 232.73 123.86 230.76 126.49 227.52 126.93 224.89 124.97 224.45 121.72 226.41 119.09 229.66 118.65"/><polyline class="cls-18" points="244.3 118.65 246.91 120.61 247.37 123.86 245.4 126.49 242.15 126.93 239.53 124.97 239.07 121.72 241.05 119.09 244.3 118.65"/><polyline class="cls-18" points="258.94 118.65 261.54 120.61 262 123.86 260.04 126.49 256.79 126.93 254.16 124.97 253.7 121.72 255.69 119.09 258.94 118.65"/><polyline class="cls-19" points="141.09 132.99 143.72 134.95 144.18 138.2 142.2 140.83 138.95 141.29 136.34 139.3 135.88 136.06 137.84 133.45 141.09 132.99"/><polyline class="cls-19" points="156.49 132.99 159.1 134.95 159.56 138.2 157.6 140.83 154.35 141.29 151.72 139.3 151.26 136.06 153.25 133.45 156.49 132.99"/><polyline class="cls-19" points="171.13 132.99 173.74 134.95 174.2 138.2 172.24 140.83 168.99 141.29 166.36 139.3 165.9 136.06 167.88 133.45 171.13 132.99"/><polyline class="cls-19" points="185.75 132.99 188.38 134.95 188.84 138.2 186.87 140.83 183.62 141.29 181 139.3 180.53 136.06 182.5 133.45 185.75 132.99"/><polyline class="cls-19" points="200.39 132.99 203.01 134.95 203.48 138.2 201.49 140.83 198.24 141.29 195.63 139.3 195.17 136.06 197.14 133.45 200.39 132.99"/><polyline class="cls-19" points="215.02 132.99 217.65 134.95 218.11 138.2 216.13 140.83 212.88 141.29 210.27 139.3 209.81 136.06 211.78 133.45 215.02 132.99"/><polyline class="cls-19" points="229.66 132.99 232.29 134.95 232.73 138.2 230.76 140.83 227.52 141.29 224.89 139.3 224.45 136.06 226.41 133.45 229.66 132.99"/><polyline class="cls-19" points="244.3 132.99 246.91 134.95 247.37 138.2 245.4 140.83 242.15 141.29 239.53 139.3 239.07 136.06 241.05 133.45 244.3 132.99"/><polyline class="cls-19" points="258.94 132.99 261.54 134.95 262 138.2 260.04 140.83 256.79 141.29 254.16 139.3 253.7 136.06 255.69 133.45 258.94 132.99"/><polyline class="cls-20" points="141.09 147.32 143.72 149.29 144.18 152.54 142.2 155.16 138.95 155.63 136.34 153.64 135.88 150.39 137.84 147.79 141.09 147.32"/><polyline class="cls-20" points="156.49 147.32 159.1 149.29 159.56 152.54 157.6 155.16 154.35 155.63 151.72 153.64 151.26 150.39 153.25 147.79 156.49 147.32"/><polyline class="cls-20" points="171.13 147.32 173.74 149.29 174.2 152.54 172.24 155.16 168.99 155.63 166.36 153.64 165.9 150.39 167.88 147.79 171.13 147.32"/><polyline class="cls-20" points="185.75 147.32 188.38 149.29 188.84 152.54 186.87 155.16 183.62 155.63 181 153.64 180.53 150.39 182.5 147.79 185.75 147.32"/><polyline class="cls-20" points="200.39 147.32 203.01 149.29 203.48 152.54 201.49 155.16 198.24 155.63 195.63 153.64 195.17 150.39 197.14 147.79 200.39 147.32"/><polyline class="cls-20" points="215.02 147.32 217.65 149.29 218.11 152.54 216.13 155.16 212.88 155.63 210.27 153.64 209.81 150.39 211.78 147.79 215.02 147.32"/><polyline class="cls-20" points="229.66 147.32 232.29 149.29 232.73 152.54 230.76 155.16 227.52 155.63 224.89 153.64 224.45 150.39 226.41 147.79 229.66 147.32"/><polyline class="cls-20" points="244.3 147.32 246.91 149.29 247.37 152.54 245.4 155.16 242.15 155.63 239.53 153.64 239.07 150.39 241.05 147.79 244.3 147.32"/><polyline class="cls-20" points="258.94 147.32 261.54 149.29 262 152.54 260.04 155.16 256.79 155.63 254.16 153.64 253.7 150.39 255.69 147.79 258.94 147.32"/><polyline class="cls-21" points="141.09 161.66 143.72 163.63 144.18 166.88 142.2 169.5 138.95 169.96 136.34 167.98 135.88 164.73 137.84 162.12 141.09 161.66"/><polyline class="cls-21" points="156.49 161.66 159.1 163.63 159.56 166.88 157.6 169.5 154.35 169.96 151.72 167.98 151.26 164.73 153.25 162.12 156.49 161.66"/><polyline class="cls-21" points="171.13 161.66 173.74 163.63 174.2 166.88 172.24 169.5 168.99 169.96 166.36 167.98 165.9 164.73 167.88 162.12 171.13 161.66"/><polyline class="cls-21" points="185.75 161.66 188.38 163.63 188.84 166.88 186.87 169.5 183.62 169.96 181 167.98 180.53 164.73 182.5 162.12 185.75 161.66"/><polyline class="cls-21" points="200.39 161.66 203.01 163.63 203.48 166.88 201.49 169.5 198.24 169.96 195.63 167.98 195.17 164.73 197.14 162.12 200.39 161.66"/><polyline class="cls-21" points="215.02 161.66 217.65 163.63 218.11 166.88 216.13 169.5 212.88 169.96 210.27 167.98 209.81 164.73 211.78 162.12 215.02 161.66"/><polyline class="cls-21" points="229.66 161.66 232.29 163.63 232.73 166.88 230.76 169.5 227.52 169.96 224.89 167.98 224.45 164.73 226.41 162.12 229.66 161.66"/><polyline class="cls-21" points="244.3 161.66 246.91 163.63 247.37 166.88 245.4 169.5 242.15 169.96 239.53 167.98 239.07 164.73 241.05 162.12 244.3 161.66"/><polyline class="cls-21" points="258.94 161.66 261.54 163.63 262 166.88 260.04 169.5 256.79 169.96 254.16 167.98 253.7 164.73 255.69 162.12 258.94 161.66"/><polyline class="cls-22" points="156.49 176 159.1 177.96 159.56 181.21 157.6 183.84 154.35 184.3 151.72 182.31 151.26 179.07 153.25 176.46 156.49 176"/><polyline class="cls-22" points="171.13 176 173.74 177.96 174.2 181.21 172.24 183.84 168.99 184.3 166.36 182.31 165.9 179.07 167.88 176.46 171.13 176"/><polyline class="cls-22" points="185.75 176 188.38 177.96 188.84 181.21 186.87 183.84 183.62 184.3 181 182.31 180.53 179.07 182.5 176.46 185.75 176"/><polyline class="cls-22" points="200.39 176 203.01 177.96 203.48 181.21 201.49 183.84 198.24 184.3 195.63 182.31 195.17 179.07 197.14 176.46 200.39 176"/><polyline class="cls-22" points="215.02 176 217.65 177.96 218.11 181.21 216.13 183.84 212.88 184.3 210.27 182.31 209.81 179.07 211.78 176.46 215.02 176"/><polyline class="cls-22" points="229.66 176 232.29 177.96 232.73 181.21 230.76 183.84 227.52 184.3 224.89 182.31 224.45 179.07 226.41 176.46 229.66 176"/><polyline class="cls-22" points="244.3 176 246.91 177.96 247.37 181.21 245.4 183.84 242.15 184.3 239.53 182.31 239.07 179.07 241.05 176.46 244.3 176"/><polyline class="cls-22" points="258.94 176 261.54 177.96 262 181.21 260.04 183.84 256.79 184.3 254.16 182.31 253.7 179.07 255.69 176.46 258.94 176"/><polyline class="cls-23" points="156.49 190.34 159.1 192.3 159.56 195.55 157.6 198.18 154.35 198.64 151.72 196.67 151.26 193.42 153.25 190.8 156.49 190.34"/><polyline class="cls-24" points="173 186.49 175.62 188.45 176.06 191.7 174.1 194.33 170.85 194.78 168.22 192.8 167.78 189.55 169.75 186.95 173 186.49"/><polyline class="cls-23" points="185.75 190.34 188.38 192.3 188.84 195.55 186.87 198.18 183.62 198.64 181 196.67 180.53 193.42 182.5 190.8 185.75 190.34"/><polyline class="cls-23" points="200.39 190.34 203.01 192.3 203.48 195.55 201.49 198.18 198.24 198.64 195.63 196.67 195.17 193.42 197.14 190.8 200.39 190.34"/><polyline class="cls-23" points="215.02 190.34 217.65 192.3 218.11 195.55 216.13 198.18 212.88 198.64 210.27 196.67 209.81 193.42 211.78 190.8 215.02 190.34"/><polyline class="cls-23" points="229.66 190.34 232.29 192.3 232.73 195.55 230.76 198.18 227.52 198.64 224.89 196.67 224.45 193.42 226.41 190.8 229.66 190.34"/><polyline class="cls-23" points="244.3 190.34 246.91 192.3 247.37 195.55 245.4 198.18 242.15 198.64 239.53 196.67 239.07 193.42 241.05 190.8 244.3 190.34"/><polyline class="cls-23" points="258.94 190.34 261.54 192.3 262 195.55 260.04 198.18 256.79 198.64 254.16 196.67 253.7 193.42 255.69 190.8 258.94 190.34"/><polyline class="cls-25" points="146.71 184.54 149.31 186.5 149.78 189.75 147.81 192.38 144.56 192.84 141.94 190.88 141.47 187.63 143.46 185 146.71 184.54"/><polyline class="cls-26" points="173.36 198.78 175.98 200.74 176.44 203.99 174.46 206.62 171.21 207.08 168.58 205.09 168.14 201.84 170.11 199.24 173.36 198.78"/><polyline class="cls-27" points="185.75 204.67 188.38 206.64 188.84 209.89 186.87 212.51 183.62 212.97 181 211.01 180.53 207.76 182.5 205.13 185.75 204.67"/><polyline class="cls-27" points="200.39 204.67 203.01 206.64 203.48 209.89 201.49 212.51 198.24 212.97 195.63 211.01 195.17 207.76 197.14 205.13 200.39 204.67"/><polyline class="cls-27" points="215.02 204.67 217.65 206.64 218.11 209.89 216.13 212.51 212.88 212.97 210.27 211.01 209.81 207.76 211.78 205.13 215.02 204.67"/><polyline class="cls-27" points="229.66 204.67 232.29 206.64 232.73 209.89 230.76 212.51 227.52 212.97 224.89 211.01 224.45 207.76 226.41 205.13 229.66 204.67"/><polyline class="cls-27" points="244.3 204.67 246.91 206.64 247.37 209.89 245.4 212.51 242.15 212.97 239.53 211.01 239.07 207.76 241.05 205.13 244.3 204.67"/><polyline class="cls-27" points="258.94 204.67 261.54 206.64 262 209.89 260.04 212.51 256.79 212.97 254.16 211.01 253.7 207.76 255.69 205.13 258.94 204.67"/><polyline class="cls-28" points="185.75 219.01 188.38 221 188.84 224.24 186.87 226.85 183.62 227.31 181 225.35 180.53 222.1 182.5 219.47 185.75 219.01"/><polyline class="cls-28" points="200.39 219.01 203.01 221 203.48 224.24 201.49 226.85 198.24 227.31 195.63 225.35 195.17 222.1 197.14 219.47 200.39 219.01"/><polyline class="cls-28" points="215.02 219.01 217.65 221 218.11 224.24 216.13 226.85 212.88 227.31 210.27 225.35 209.81 222.1 211.78 219.47 215.02 219.01"/><polyline class="cls-28" points="229.66 219.01 232.29 221 232.73 224.24 230.76 226.85 227.52 227.31 224.89 225.35 224.45 222.1 226.41 219.47 229.66 219.01"/><polyline class="cls-28" points="244.3 219.01 246.91 221 247.37 224.24 245.4 226.85 242.15 227.31 239.53 225.35 239.07 222.1 241.05 219.47 244.3 219.01"/><polyline class="cls-28" points="258.94 219.01 261.54 221 262 224.24 260.04 226.85 256.79 227.31 254.16 225.35 253.7 222.1 255.69 219.47 258.94 219.01"/><polyline class="cls-29" points="185.75 233.34 188.38 235.33 188.84 238.58 186.87 241.19 183.62 241.65 181 239.68 180.53 236.44 182.5 233.81 185.75 233.34"/><polyline class="cls-29" points="200.39 233.34 203.01 235.33 203.48 238.58 201.49 241.19 198.24 241.65 195.63 239.68 195.17 236.44 197.14 233.81 200.39 233.34"/><polyline class="cls-29" points="215.02 233.34 217.65 235.33 218.11 238.58 216.13 241.19 212.88 241.65 210.27 239.68 209.81 236.44 211.78 233.81 215.02 233.34"/><polyline class="cls-29" points="229.66 233.34 232.29 235.33 232.73 238.58 230.76 241.19 227.52 241.65 224.89 239.68 224.45 236.44 226.41 233.81 229.66 233.34"/><polyline class="cls-29" points="244.3 233.34 246.91 235.33 247.37 238.58 245.4 241.19 242.15 241.65 239.53 239.68 239.07 236.44 241.05 233.81 244.3 233.34"/><polyline class="cls-29" points="258.94 233.34 261.54 235.33 262 238.58 260.04 241.19 256.79 241.65 254.16 239.68 253.7 236.44 255.69 233.81 258.94 233.34"/><polyline class="cls-30" points="185.75 247.68 188.38 249.67 188.84 252.92 186.87 255.52 183.62 255.99 181 254.02 180.53 250.77 182.5 248.15 185.75 247.68"/><polyline class="cls-30" points="200.39 247.68 203.01 249.67 203.48 252.92 201.49 255.52 198.24 255.99 195.63 254.02 195.17 250.77 197.14 248.15 200.39 247.68"/><polyline class="cls-30" points="215.02 247.68 217.65 249.67 218.11 252.92 216.13 255.52 212.88 255.99 210.27 254.02 209.81 250.77 211.78 248.15 215.02 247.68"/><polyline class="cls-30" points="229.66 247.68 232.29 249.67 232.73 252.92 230.76 255.52 227.52 255.99 224.89 254.02 224.45 250.77 226.41 248.15 229.66 247.68"/><polyline class="cls-30" points="244.3 247.68 246.91 249.67 247.37 252.92 245.4 255.52 242.15 255.99 239.53 254.02 239.07 250.77 241.05 248.15 244.3 247.68"/><polyline class="cls-30" points="258.94 247.68 261.54 249.67 262 252.92 260.04 255.52 256.79 255.99 254.16 254.02 253.7 250.77 255.69 248.15 258.94 247.68"/><polyline class="cls-31" points="185.75 250.02 188.38 252 188.84 255.25 186.87 257.88 183.62 258.32 181 256.36 180.53 253.11 182.5 250.48 185.75 250.02"/><polyline class="cls-31" points="200.39 250.02 203.01 252 203.48 255.25 201.49 257.88 198.24 258.32 195.63 256.36 195.17 253.11 197.14 250.48 200.39 250.02"/><polyline class="cls-31" points="215.02 250.02 217.65 252 218.11 255.25 216.13 257.88 212.88 258.32 210.27 256.36 209.81 253.11 211.78 250.48 215.02 250.02"/><polyline class="cls-31" points="229.66 250.02 232.29 252 232.73 255.25 230.76 257.88 227.52 258.32 224.89 256.36 224.45 253.11 226.41 250.48 229.66 250.02"/><polyline class="cls-31" points="244.3 250.02 246.91 252 247.37 255.25 245.4 257.88 242.15 258.32 239.53 256.36 239.07 253.11 241.05 250.48 244.3 250.02"/><polyline class="cls-31" points="258.94 250.02 261.54 252 262 255.25 260.04 257.88 256.79 258.32 254.16 256.36 253.7 253.11 255.69 250.48 258.94 250.02"/><polyline class="cls-32" points="310.61 268.67 303.21 268.67 303.21 18.67 310.61 18.67 310.61 268.67"/></svg>